<svg width="22" height="22" viewBox="0 0 22 22" fill="none" xmlns="http://www.w3.org/2000/svg">
<g clip-path="url(#clip0_1599_8835)">
<path d="M11 21.2667L10.4365 21.8346C10.7484 22.1441 11.2516 22.1441 11.5635 21.8346L11 21.2667ZM18.2693 8.80271C18.2693 9.70925 17.8467 10.8988 17.1073 12.2452C16.3803 13.5689 15.401 14.9491 14.4064 16.2107C13.4142 17.4693 12.42 18.5933 11.6727 19.4036C11.2995 19.8083 10.9889 20.1337 10.7723 20.3572C10.664 20.4689 10.5792 20.5552 10.5219 20.6131C10.4933 20.642 10.4715 20.6639 10.4571 20.6783C10.4499 20.6855 10.4446 20.6909 10.4411 20.6943C10.4394 20.696 10.4381 20.6973 10.4374 20.698C10.437 20.6984 10.4367 20.6987 10.4366 20.6988C10.4365 20.6989 10.4365 20.6989 10.4364 20.6989C10.4365 20.6989 10.4365 20.6989 11 21.2667C11.5635 21.8346 11.5636 21.8345 11.5638 21.8343C11.5638 21.8343 11.564 21.8341 11.5642 21.8339C11.5645 21.8336 11.565 21.8331 11.5656 21.8325C11.5668 21.8313 11.5685 21.8297 11.5706 21.8275C11.5749 21.8232 11.5811 21.817 11.5892 21.809C11.6053 21.7928 11.6289 21.7692 11.6593 21.7384C11.7202 21.6768 11.8089 21.5866 11.9212 21.4707C12.1458 21.2389 12.4657 20.9039 12.8489 20.4883C13.6147 19.6579 14.6378 18.5015 15.6629 17.2012C16.6857 15.9039 17.7237 14.4466 18.5097 13.0154C19.2832 11.607 19.8693 10.1244 19.8693 8.80271H18.2693ZM11 21.2667C11.5635 20.6989 11.5636 20.6989 11.5636 20.6989C11.5635 20.6989 11.5635 20.6989 11.5635 20.6988C11.5633 20.6987 11.563 20.6984 11.5627 20.698C11.5619 20.6973 11.5606 20.696 11.5589 20.6943C11.5555 20.6909 11.5501 20.6855 11.5429 20.6783C11.5285 20.6639 11.5067 20.642 11.4781 20.6131C11.4208 20.5552 11.336 20.4689 11.2277 20.3572C11.0111 20.1337 10.7005 19.8083 10.3273 19.4036C9.58006 18.5933 8.58582 17.4693 7.5936 16.2107C6.59903 14.9491 5.61972 13.5689 4.89273 12.2452C4.15327 10.8988 3.73069 9.70925 3.73069 8.80271H2.13069C2.13069 10.1244 2.71678 11.607 3.49032 13.0154C4.27633 14.4466 5.31435 15.9039 6.3371 17.2012C7.36221 18.5015 8.3853 19.6579 9.15107 20.4883C9.53436 20.9039 9.85417 21.2389 10.0788 21.4707C10.1912 21.5866 10.2798 21.6768 10.3407 21.7384C10.3711 21.7692 10.3947 21.7928 10.4108 21.809C10.4189 21.817 10.4251 21.8232 10.4294 21.8275C10.4316 21.8297 10.4332 21.8313 10.4344 21.8325C10.435 21.8331 10.4355 21.8336 10.4358 21.8339C10.436 21.8341 10.4362 21.8343 10.4363 21.8343C10.4364 21.8345 10.4365 21.8346 11 21.2667ZM3.73069 8.80271C3.73069 4.78798 6.98528 1.5334 11 1.5334V-0.0666016C6.10162 -0.0666016 2.13069 3.90433 2.13069 8.80271H3.73069ZM11 1.5334C15.0147 1.5334 18.2693 4.78798 18.2693 8.80271H19.8693C19.8693 3.90433 15.8984 -0.0666016 11 -0.0666016V1.5334ZM12.6432 8.78092C12.6432 9.68846 11.9075 10.4242 11 10.4242V12.0242C12.7912 12.0242 14.2432 10.5721 14.2432 8.78092H12.6432ZM11 10.4242C10.0925 10.4242 9.35676 9.68846 9.35676 8.78092H7.75676C7.75676 10.5721 9.20881 12.0242 11 12.0242V10.4242ZM9.35676 8.78092C9.35676 7.87339 10.0925 7.13768 11 7.13768V5.53768C9.20881 5.53768 7.75676 6.98973 7.75676 8.78092H9.35676ZM11 7.13768C11.9075 7.13768 12.6432 7.87339 12.6432 8.78092H14.2432C14.2432 6.98973 12.7912 5.53768 11 5.53768V7.13768Z" fill="#333333"/>
</g>
<defs>
<clipPath id="clip0_1599_8835">
<rect width="22" height="22" fill="white"/>
</clipPath>
</defs>
</svg>
