<svg width="36" height="36" viewBox="0 0 36 36" fill="none" xmlns="http://www.w3.org/2000/svg">
<g clip-path="url(#clip0_3113_18238)">
<path d="M0 18C0 22.7739 1.89642 27.3523 5.27208 30.7279C8.64773 34.1036 13.2261 36 18 36C22.7739 36 27.3523 34.1036 30.7279 30.7279C34.1036 27.3523 36 22.7739 36 18C36 13.2261 34.1036 8.64773 30.7279 5.27208C27.3523 1.89642 22.7739 0 18 0C13.2261 0 8.64773 1.89642 5.27208 5.27208C1.89642 8.64773 0 13.2261 0 18Z" fill="#999999"/>
<path d="M17.6705 14.5623C17.8458 14.3867 18.1302 14.3867 18.3055 14.5623L22.7467 19.0102C23.0977 19.3617 22.9795 19.6464 22.4831 19.6464H19.786V24.3084C19.786 24.8048 19.3836 25.207 18.8873 25.207H17.0887C16.5925 25.207 16.1901 24.8047 16.1901 24.3084V19.6465H13.493C12.9965 19.6465 12.8784 19.3616 13.2293 19.0102L17.6706 14.5623H17.6705ZM23.3941 12.6255H12.6059C12.1097 12.6255 11.707 12.2231 11.707 11.7268C11.707 11.2304 12.1094 10.8281 12.6059 10.8281H23.3941C23.8902 10.8281 24.293 11.2305 24.293 11.7268C24.293 12.2232 23.8906 12.6255 23.3941 12.6255Z" fill="white"/>
</g>
<defs>
<clipPath id="clip0_3113_18238">
<rect width="36" height="36" fill="white"/>
</clipPath>
</defs>
</svg>
