<svg width="12" height="12" viewBox="0 0 12 12" fill="none" xmlns="http://www.w3.org/2000/svg">
<g clip-path="url(#clip0_1176_7907)">
<path d="M7.40172 2.40138C7.34847 2.67738 7.29747 2.93763 7.30797 3.19788C7.31266 3.35858 7.37986 3.5111 7.49527 3.62301C7.61068 3.73493 7.76521 3.7974 7.92597 3.79713L10.5307 3.77463C10.7222 3.7733 10.9118 3.81208 11.0874 3.88849C11.2629 3.9649 11.4206 4.07724 11.5501 4.21826C11.6796 4.35929 11.7781 4.52588 11.8393 4.70731C11.9005 4.88873 11.9231 5.08097 11.9055 5.27163L11.3865 10.7594C11.3553 11.0991 11.1981 11.4149 10.9457 11.6445C10.6934 11.8741 10.3642 12.0009 10.023 11.9999H1.45798C1.09509 11.9995 0.747173 11.8551 0.490569 11.5985C0.233965 11.3419 0.0896304 10.994 0.0892334 10.6311V6.00213C0.0892334 5.24688 0.703482 4.63263 1.45798 4.63263H1.92223C2.57923 4.63263 3.28948 4.50213 3.53098 4.21038C3.96673 3.68463 4.30648 3.01188 4.54198 2.21238C4.60197 2.00839 4.64622 1.79914 4.69047 1.59139L4.75422 1.29514C4.80447 1.05214 4.86222 0.776888 5.02797 0.533138C5.12574 0.396603 5.24957 0.280777 5.39233 0.192343C5.53508 0.103909 5.69394 0.0446177 5.85972 0.017889C6.12092 -0.0245054 6.38881 0.0109706 6.62997 0.119889C7.00797 0.290139 7.28547 0.638138 7.41222 1.09939C7.46172 1.27939 7.48947 1.47439 7.49247 1.67989C7.49772 1.91239 7.45647 2.11939 7.41747 2.31963M1.45798 5.38338C1.29387 5.38378 1.13661 5.4492 1.02063 5.56531C0.904659 5.68142 0.83943 5.83877 0.839232 6.00288V10.6311C0.839232 10.9724 1.11673 11.2499 1.45798 11.2499H10.023C10.1771 11.2507 10.326 11.1935 10.44 11.0898C10.5541 10.986 10.625 10.8432 10.6387 10.6896L11.1577 5.20188C11.1662 5.11589 11.1564 5.02909 11.129 4.94715C11.1016 4.8652 11.0572 4.78997 10.9987 4.72638C10.9411 4.66236 10.8707 4.61123 10.792 4.57633C10.7133 4.54143 10.6281 4.52356 10.542 4.52388L7.93722 4.54638C7.5805 4.54953 7.23667 4.41321 6.97901 4.16648C6.72136 3.91976 6.57028 3.58215 6.55797 3.22563C6.54522 2.88063 6.60672 2.56413 6.66597 2.25813L6.68172 2.17489C6.71622 1.99939 6.74622 1.84714 6.74247 1.69414C6.74158 1.56036 6.72343 1.42726 6.68847 1.29814C6.65022 1.15714 6.55122 0.907387 6.32097 0.803138C6.2156 0.755332 6.09853 0.739428 5.98422 0.757388C5.85111 0.778235 5.73095 0.849043 5.64822 0.955387C5.56572 1.07539 5.52897 1.25614 5.48847 1.44739L5.42397 1.74739C5.37597 1.97389 5.32647 2.20113 5.26122 2.42313C4.99722 3.32088 4.60873 4.08363 4.10848 4.68888C3.58948 5.31588 2.44348 5.38338 1.97548 5.38338H1.45798Z" fill="#999999"/>
<path d="M2.44873 11.6063C2.34927 11.6063 2.25389 11.5668 2.18357 11.4965C2.11324 11.4262 2.07373 11.3308 2.07373 11.2313V5.40234C2.07373 5.30289 2.11324 5.2075 2.18357 5.13718C2.25389 5.06685 2.34927 5.02734 2.44873 5.02734C2.54819 5.02734 2.64357 5.06685 2.71389 5.13718C2.78422 5.2075 2.82373 5.30289 2.82373 5.40234V11.2313C2.82373 11.3308 2.78422 11.4262 2.71389 11.4965C2.64357 11.5668 2.54819 11.6063 2.44873 11.6063Z" fill="#999999"/>
</g>
<defs>
<clipPath id="clip0_1176_7907">
<rect width="12" height="12" fill="white"/>
</clipPath>
</defs>
</svg>
