<svg width="12" height="12" viewBox="0 0 12 12" fill="none" xmlns="http://www.w3.org/2000/svg">
<g clip-path="url(#clip0_1176_9344)">
<path fill-rule="evenodd" clip-rule="evenodd" d="M7.39982 2.41187L7.40184 2.40138L7.41759 2.31963L7.41968 2.30892C7.45805 2.112 7.49775 1.90824 7.49259 1.67989C7.48959 1.47439 7.46184 1.27939 7.41234 1.09939C7.28559 0.638138 7.00809 0.290139 6.63009 0.119889C6.38894 0.0109706 6.12104 -0.0245054 5.85985 0.017889C5.69406 0.0446177 5.5352 0.103909 5.39245 0.192343C5.24969 0.280777 5.12586 0.396603 5.0281 0.533138C4.86235 0.776888 4.8046 1.05214 4.75435 1.29514L4.6906 1.59139L4.68813 1.60299C4.64469 1.80692 4.60098 2.01218 4.5421 2.21238C4.3066 3.01188 3.96685 3.68463 3.5311 4.21038C3.38751 4.38385 3.07819 4.50032 2.71289 4.56624V11.9999H10.0231C10.3643 12.0009 10.6935 11.8741 10.9459 11.6445C11.1982 11.4149 11.3555 11.0991 11.3866 10.7594L11.9056 5.27163C11.9232 5.08097 11.9007 4.88873 11.8394 4.70731C11.7782 4.52588 11.6797 4.35929 11.5502 4.21826C11.4207 4.07724 11.2631 3.9649 11.0875 3.88849C10.9119 3.81208 10.7223 3.7733 10.5308 3.77463L7.92609 3.79713C7.76533 3.7974 7.61081 3.73493 7.49539 3.62301C7.37998 3.5111 7.31278 3.35858 7.30809 3.19788C7.29773 2.94093 7.34731 2.68398 7.39982 2.41187ZM1.854 11.9999V4.63263H1.4581C0.703604 4.63263 0.0893555 5.24688 0.0893555 6.00213V10.6311C0.0897525 10.994 0.234087 11.3419 0.490691 11.5985C0.747295 11.8551 1.09521 11.9995 1.4581 11.9999H1.854Z" fill="#F86310"/>
</g>
<defs>
<clipPath id="clip0_1176_9344">
<rect width="12" height="12" fill="white"/>
</clipPath>
</defs>
</svg>
