<svg width="22" height="22" viewBox="0 0 22 22" fill="none" xmlns="http://www.w3.org/2000/svg">
<path d="M8.41836 2.54102C8.41836 2.09919 8.06018 1.74102 7.61836 1.74102C7.17653 1.74102 6.81836 2.09919 6.81836 2.54102H8.41836ZM6.81836 5.49278C6.81836 5.9346 7.17653 6.29278 7.61836 6.29278C8.06018 6.29278 8.41836 5.9346 8.41836 5.49278H6.81836ZM14.986 2.54102C14.986 2.09919 14.6278 1.74102 14.186 1.74102C13.7442 1.74102 13.386 2.09919 13.386 2.54102H14.986ZM13.386 5.49278C13.386 5.9346 13.7442 6.29278 14.186 6.29278C14.6278 6.29278 14.986 5.9346 14.986 5.49278H13.386ZM3.75765 4.63241H18.0467V3.03241H3.75765V4.63241ZM18.0467 17.164H3.75765V18.764H18.0467V17.164ZM2.72432 16.1306V9.67915H1.12432V16.1306H2.72432ZM2.72432 9.67915V5.66574H1.12432V9.67915H2.72432ZM19.0801 5.66574V9.67915H20.6801V5.66574H19.0801ZM19.0801 9.67915V16.1306H20.6801V9.67915H19.0801ZM1.92432 10.4791H19.8801V8.87915H1.92432V10.4791ZM3.75765 17.164C3.18695 17.164 2.72432 16.7013 2.72432 16.1306H1.12432C1.12432 17.585 2.3033 18.764 3.75765 18.764V17.164ZM18.0467 18.764C19.5011 18.764 20.6801 17.585 20.6801 16.1306H19.0801C19.0801 16.7013 18.6174 17.164 18.0467 17.164V18.764ZM18.0467 4.63241C18.6174 4.63241 19.0801 5.09505 19.0801 5.66574H20.6801C20.6801 4.21139 19.5011 3.03241 18.0467 3.03241V4.63241ZM3.75765 3.03241C2.3033 3.03241 1.12432 4.21139 1.12432 5.66574H2.72432C2.72432 5.09505 3.18696 4.63241 3.75765 4.63241V3.03241ZM6.81836 2.54102V5.49278H8.41836V2.54102H6.81836ZM13.386 2.54102V5.49278H14.986V2.54102H13.386Z" fill="#333333"/>
</svg>
