<svg width="22" height="22" viewBox="0 0 22 22" fill="none" xmlns="http://www.w3.org/2000/svg">
<g id="&#229;&#155;&#190;&#230;&#160;&#135;/&#232;&#128;&#179;&#230;&#156;&#186;-&#229;&#174;&#162;&#230;&#156;&#141;-&#230;&#156;&#141;&#229;&#138;&#161;-&#229;&#157;&#144;&#229;&#184;&#173;" clip-path="url(#clip0_1599_8945)">
<g id="Vector">
<mask id="path-1-inside-1_1599_8945" fill="white">
<path d="M16.7474 14.8312C18.8636 14.8312 20.579 13.1157 20.579 10.9996C20.579 8.88343 18.8636 7.16797 16.7474 7.16797"/>
</mask>
<path d="M16.7474 16.3312C19.692 16.3312 22.079 13.9442 22.079 10.9996H19.079C19.079 12.2873 18.0352 13.3312 16.7474 13.3312V16.3312ZM22.079 10.9996C22.079 8.055 19.692 5.66797 16.7474 5.66797V8.66797C18.0352 8.66797 19.079 9.71186 19.079 10.9996H22.079Z" fill="#333333" mask="url(#path-1-inside-1_1599_8945)"/>
</g>
<path id="Vector_2" d="M16.7474 14.8312C18.8636 14.8312 20.579 13.1157 20.579 10.9996C20.579 8.88343 18.8636 7.16797 16.7474 7.16797" stroke="#333333" stroke-linejoin="round"/>
<g id="Vector_3">
<mask id="path-4-inside-2_1599_8945" fill="white">
<path d="M5.2526 7.16797C3.13646 7.16797 1.42099 8.88343 1.42099 10.9996C1.42099 13.1157 3.13646 14.8312 5.2526 14.8312"/>
</mask>
<path d="M5.2526 5.66797C2.30803 5.66797 -0.07901 8.055 -0.07901 10.9996H2.92099C2.92099 9.71186 3.96488 8.66797 5.2526 8.66797V5.66797ZM-0.07901 10.9996C-0.07901 13.9442 2.30803 16.3312 5.2526 16.3312V13.3312C3.96488 13.3312 2.92099 12.2873 2.92099 10.9996H-0.07901Z" fill="#333333" mask="url(#path-4-inside-2_1599_8945)"/>
</g>
<path id="Vector_4" d="M5.2526 7.16797C3.13646 7.16797 1.42099 8.88343 1.42099 10.9996C1.42099 13.1157 3.13646 14.8312 5.2526 14.8312" stroke="#333333" stroke-linejoin="round"/>
<path id="Vector_5" d="M5.25259 14.8315V14.5921V13.3947V10.9999V7.16831C5.25259 3.9941 7.82581 1.4209 11 1.4209C14.1742 1.4209 16.7474 3.9941 16.7474 7.16831V14.8315C16.7474 18.0057 14.1742 20.5789 11 20.5789" stroke="#333333" stroke-width="1.5" stroke-linecap="round" stroke-linejoin="round"/>
</g>
<defs>
<clipPath id="clip0_1599_8945">
<rect width="22" height="22" fill="white"/>
</clipPath>
</defs>
</svg>
