<svg width="12" height="13" viewBox="0 0 12 13" fill="none" xmlns="http://www.w3.org/2000/svg">
<g clip-path="url(#clip0_906_4688)">
<path fill-rule="evenodd" clip-rule="evenodd" d="M11.6667 6.50004C11.6667 9.62966 9.12962 12.1667 6 12.1667C2.87039 12.1667 0.333336 9.62966 0.333336 6.50004C0.333336 3.37043 2.87039 0.833374 6 0.833374C9.12962 0.833374 11.6667 3.37043 11.6667 6.50004ZM6.39844 4.37504C6.39844 4.15499 6.22005 3.9766 6 3.9766C5.77995 3.9766 5.60156 4.15499 5.60156 4.37504V6.1016H3.875C3.65495 6.1016 3.47657 6.27999 3.47657 6.50004C3.47657 6.72009 3.65495 6.89848 3.875 6.89848H5.60156V8.62504C5.60156 8.84509 5.77995 9.02348 6 9.02348C6.22005 9.02348 6.39844 8.84509 6.39844 8.62504V6.89848H8.125C8.34505 6.89848 8.52344 6.72009 8.52344 6.50004C8.52344 6.27999 8.34505 6.1016 8.125 6.1016H6.39844V4.37504Z" fill="#D0D0D0"/>
</g>
<defs>
<clipPath id="clip0_906_4688">
<rect width="12" height="12" fill="white" transform="translate(0 0.5)"/>
</clipPath>
</defs>
</svg>
