<svg width="18" height="18" viewBox="0 0 18 18" fill="none" xmlns="http://www.w3.org/2000/svg">
<path d="M7.4783 13.0847L3.04833 7.44041C2.93307 7.32537 2.77688 7.26076 2.61404 7.26076C2.45119 7.26076 2.295 7.32537 2.17974 7.44041C2.12277 7.49728 2.07756 7.56483 2.04672 7.6392C2.01588 7.71356 2 7.79328 2 7.87379C2 7.95429 2.01588 8.03401 2.04672 8.10837C2.07756 8.18274 2.12277 8.25029 2.17974 8.30717L7.04431 14.3854C7.10121 14.4426 7.16884 14.488 7.24331 14.5189C7.31779 14.5499 7.39765 14.5658 7.4783 14.5658C7.55895 14.5658 7.63881 14.5499 7.71329 14.5189C7.78776 14.488 7.85539 14.4426 7.91229 14.3854L15.8203 4.04641C15.8772 3.98953 15.9224 3.92198 15.9533 3.84762C15.9841 3.77325 16 3.69354 16 3.61303C16 3.53252 15.9841 3.45281 15.9533 3.37844C15.9224 3.30408 15.8772 3.23652 15.8203 3.17965C15.705 3.06461 15.5488 3 15.386 3C15.2231 3 15.0669 3.06461 14.9517 3.17965L7.4783 13.0847Z" fill="#191919"/>
</svg>
