<svg width="22" height="22" viewBox="0 0 22 22" fill="none" xmlns="http://www.w3.org/2000/svg">
<g id="&#229;&#155;&#190;&#230;&#160;&#135;/&#228;&#184;&#139;&#232;&#189;&#189;">
<path id="Vector" d="M3.14446 9.78189C3.14446 9.39529 2.83106 9.08189 2.44446 9.08189C2.05786 9.08189 1.74446 9.39529 1.74446 9.78189H3.14446ZM2.44446 18.5664H1.74446C1.74446 18.953 2.05786 19.2664 2.44446 19.2664V18.5664ZM19.5556 18.5664V19.2664C19.9422 19.2664 20.2556 18.953 20.2556 18.5664H19.5556ZM20.2556 9.77784C20.2556 9.39124 19.9422 9.07784 19.5556 9.07784C19.169 9.07784 18.8556 9.39124 18.8556 9.77784H20.2556ZM15.7794 9.77786C16.049 9.50085 16.0431 9.05767 15.7661 8.788C15.4891 8.51833 15.0459 8.52429 14.7762 8.8013L15.7794 9.77786ZM11 13.6839L10.4984 14.1722C10.6302 14.3075 10.8111 14.3839 11 14.3839C11.1889 14.3839 11.3698 14.3075 11.5016 14.1722L11 13.6839ZM7.22382 8.8013C6.95415 8.52429 6.51097 8.51833 6.23396 8.788C5.95694 9.05767 5.95099 9.50085 6.22066 9.77786L7.22382 8.8013ZM11.6961 0.989258C11.6961 0.602658 11.3827 0.289258 10.9961 0.289258C10.6095 0.289258 10.2961 0.602658 10.2961 0.989258H11.6961ZM10.2961 13.6839C10.2961 14.0705 10.6095 14.3839 10.9961 14.3839C11.3827 14.3839 11.6961 14.0705 11.6961 13.6839H10.2961ZM1.74446 9.78189V18.5664H3.14446V9.78189H1.74446ZM2.44446 19.2664H19.5556V17.8664H2.44446V19.2664ZM20.2556 18.5664V9.77784H18.8556V18.5664H20.2556ZM14.7762 8.8013L10.4984 13.1956L11.5016 14.1722L15.7794 9.77786L14.7762 8.8013ZM11.5016 13.1956L7.22382 8.8013L6.22066 9.77786L10.4984 14.1722L11.5016 13.1956ZM10.2961 0.989258V13.6839H11.6961V0.989258H10.2961Z" fill="#333333"/>
</g>
</svg>
