<svg width="22" height="22" viewBox="0 0 22 22" fill="none" xmlns="http://www.w3.org/2000/svg">
<path fill-rule="evenodd" clip-rule="evenodd" d="M11 22C17.0751 22 22 17.0752 22 11C22 4.92485 17.0751 0 11 0C4.92487 0 0 4.92485 0 11C0 17.0752 4.92487 22 11 22ZM11 20.042C15.9938 20.042 20.042 15.9938 20.042 11C20.042 6.00623 15.9938 1.95799 11 1.95799C6.00623 1.95799 1.95796 6.00623 1.95796 11C1.95796 15.9938 6.00623 20.042 11 20.042Z" fill="#F86310"/>
<path d="M14.9953 9.25228C14.9953 11.4588 13.2066 13.2476 11 13.2476C8.79344 13.2476 7.00468 11.4588 7.00468 9.25228C7.00468 7.04573 8.79344 5.25696 11 5.25696C13.2066 5.25696 14.9953 7.04573 14.9953 9.25228Z" fill="#F86310"/>
<path d="M17.0371 17.7315C15.4363 19.1681 13.3202 20.042 11 20.042C8.67981 20.042 6.56373 19.1681 4.96295 17.7315C6.56373 16.295 8.67981 15.4211 11 15.4211C13.3202 15.4211 15.4363 16.295 17.0371 17.7315Z" fill="#F86310"/>
</svg>
