<svg width="18" height="18" viewBox="0 0 18 18" fill="none" xmlns="http://www.w3.org/2000/svg">
<g id="&#229;&#155;&#190;&#230;&#160;&#135;/&#233;&#130;&#174;&#231;&#174;&#177;-&#233;&#130;&#174;&#228;&#187;&#182;-&#228;&#191;&#161;&#229;&#176;&#129;">
<path id="Vector" d="M16.9866 4.46002C16.9434 4.81837 16.785 5.1633 16.5134 5.43664L10.1784 11.7716C9.52998 12.42 8.47002 12.42 7.82164 11.7716L1.48664 5.43664C1.2133 5.1633 1.05499 4.81663 1.01336 4.46002C1.00498 4.52837 1 4.59669 1 4.66669V13.3334C1 14.25 1.74995 15.0001 2.66671 15.0001H15.3334C16.25 15.0001 17 14.25 17 13.3334V4.66669C17 4.59669 16.995 4.52837 16.9866 4.46002ZM10.1784 10.5583L16.82 3.91665C16.5449 3.37334 15.98 3 15.3334 3H2.66671C2.02007 3 1.45496 3.37334 1.18006 3.91665L7.82164 10.5583C8.46993 11.2067 9.52998 11.2067 10.1784 10.5583Z" fill="#272636"/>
</g>
</svg>
