<svg width="33" height="32" viewBox="0 0 33 32" fill="none" xmlns="http://www.w3.org/2000/svg">
<path d="M13.8333 31.8222C6.27778 30.4889 0.5 23.9111 0.5 16C0.5 7.2 7.7 0 16.5 0C25.3 0 32.5 7.2 32.5 16C32.5 23.9111 26.7222 30.4889 19.1667 31.8222L18.2778 31.1111H14.7222L13.8333 31.8222Z" fill="url(#paint0_linear_1705_565)"/>
<path d="M22.7222 20.4444L23.4333 16H19.1667V12.8889C19.1667 11.6444 19.6111 10.6667 21.5667 10.6667H23.6111V6.57777C22.4555 6.39999 21.2111 6.22222 20.0555 6.22222C16.4111 6.22222 13.8333 8.44444 13.8333 12.4444V16H9.83333V20.4444H13.8333V31.7333C14.7222 31.9111 15.6111 32 16.5 32C17.3889 32 18.2778 31.9111 19.1667 31.7333V20.4444H22.7222Z" fill="white"/>
<defs>
<linearGradient id="paint0_linear_1705_565" x1="16.5" y1="31.065" x2="16.5" y2="0" gradientUnits="userSpaceOnUse">
<stop stop-color="#0062E0"/>
<stop offset="1" stop-color="#19AFFF"/>
</linearGradient>
</defs>
</svg>
