<svg width="12" height="12" viewBox="0 0 12 12" fill="none" xmlns="http://www.w3.org/2000/svg">
<path d="M11.3288 5.99998C11.3288 6.76004 11.1587 7.48067 10.8532 8.12934C10.776 8.29312 10.761 8.46594 10.7622 8.6022C10.7634 8.74454 10.7832 8.89292 10.8091 9.03368C10.8533 9.27409 10.9256 9.54434 10.9919 9.79213C11.0022 9.83066 11.0124 9.86865 11.0222 9.90589C11.1002 10.1994 11.1623 10.4509 11.1853 10.6496C11.188 10.6731 11.19 10.6945 11.1913 10.7139C11.1906 10.7138 11.1899 10.7137 11.1892 10.7136C11.015 10.6857 10.7906 10.6182 10.52 10.5325C10.4968 10.5252 10.4733 10.5177 10.4495 10.5102C10.214 10.4354 9.94883 10.3511 9.71303 10.3012C9.58163 10.2734 9.43798 10.2513 9.29751 10.2514C9.1627 10.2515 8.98169 10.2716 8.81364 10.3728C7.99816 10.8636 7.0347 11.1479 6.00027 11.1479C3.04243 11.1479 0.671695 8.8284 0.671695 5.99998C0.671695 3.17156 3.04243 0.852022 6.00027 0.852022C8.95811 0.852022 11.3288 3.17156 11.3288 5.99998ZM11.1879 10.8558C11.1879 10.8558 11.188 10.8551 11.1884 10.854L11.1879 10.8558Z" stroke="#999999"/>
</svg>
