<svg width="33" height="32" viewBox="0 0 33 32" fill="none" xmlns="http://www.w3.org/2000/svg">
<path d="M1.83334 3.41534C1.83334 2.26544 2.76553 1.33325 3.91544 1.33325H29.0847C30.2346 1.33325 31.1668 2.26544 31.1668 3.41535V28.5845C31.1668 29.7344 30.2346 30.6666 29.0847 30.6666H3.91544C2.76553 30.6666 1.83334 29.7344 1.83334 28.5845V3.41534Z" fill="#0A66C2"/>
<path d="M8.41735 10.4428C9.82273 10.4428 10.962 9.30349 10.962 7.89811C10.962 6.49272 9.82273 5.35344 8.41735 5.35344C7.01197 5.35344 5.87269 6.49272 5.87269 7.89811C5.87269 9.30349 7.01197 10.4428 8.41735 10.4428Z" fill="white"/>
<path d="M13.2925 12.3234H17.5098V14.2553C17.5098 14.2553 18.6543 11.9665 21.7681 11.9665C24.5458 11.9665 26.8468 13.3348 26.8468 17.5057V26.3008H22.4764V18.5714C22.4764 16.111 21.1629 15.8404 20.1619 15.8404C18.0846 15.8404 17.729 17.6322 17.729 18.8923V26.3008H13.2925V12.3234Z" fill="white"/>
<path d="M6.1991 12.3234H10.6356V26.3008H6.1991V12.3234Z" fill="white"/>
</svg>
