<svg width="18" height="18" viewBox="0 0 18 18" fill="none" xmlns="http://www.w3.org/2000/svg">
<path fill-rule="evenodd" clip-rule="evenodd" d="M5.5 1C4.39543 1 3.5 1.89543 3.5 3V15C3.5 16.1046 4.39543 17 5.5 17H12.5C13.6046 17 14.5 16.1046 14.5 15V3C14.5 1.89543 13.6046 1 12.5 1H5.5ZM8.25 3.1875C7.93934 3.1875 7.6875 3.43934 7.6875 3.75C7.6875 4.06066 7.93934 4.3125 8.25 4.3125H9.75C10.0607 4.3125 10.3125 4.06066 10.3125 3.75C10.3125 3.43934 10.0607 3.1875 9.75 3.1875H8.25ZM7.5 13.6875C7.18934 13.6875 6.9375 13.9393 6.9375 14.25C6.9375 14.5607 7.18934 14.8125 7.5 14.8125H10.5C10.8107 14.8125 11.0625 14.5607 11.0625 14.25C11.0625 13.9393 10.8107 13.6875 10.5 13.6875H7.5Z" fill="#111111"/>
</svg>
