<svg width="18" height="18" viewBox="0 0 18 18" fill="none" xmlns="http://www.w3.org/2000/svg">
<path d="M6.66594 8.41486L1.88184 4.5052C1.79685 4.43492 1.66772 4.49539 1.66772 4.60654V13.4114C1.66772 13.4294 1.66772 13.4458 1.66936 13.4637C1.6759 13.5782 1.81483 13.6305 1.89328 13.5471L6.67575 8.60773C6.72969 8.55215 6.72478 8.46389 6.66594 8.41486ZM2.41631 3.7321L8.91661 8.94116C8.96401 8.97875 9.03266 8.97875 9.08006 8.94116L15.5804 3.7321C15.6768 3.65527 15.6228 3.5 15.4986 3.5H2.49804C2.37545 3.5 2.31988 3.65527 2.41631 3.7321ZM10.5674 9.15364C10.52 9.10297 10.4399 9.0997 10.3876 9.14547L9.08333 10.2618C9.03429 10.3027 8.96401 10.3043 8.91497 10.2634L7.57307 9.15037C7.52077 9.10624 7.44395 9.11114 7.39655 9.16018L2.3967 14.2777C2.31661 14.3611 2.37382 14.5 2.48986 14.5H15.3777C15.4921 14.5 15.5509 14.3627 15.4725 14.2793L10.5674 9.15364ZM16.3306 4.62779C16.3306 4.51828 16.2031 4.45617 16.1181 4.52645L11.3503 8.40015C11.2915 8.44918 11.285 8.53744 11.3389 8.59302L16.105 13.5487C16.1851 13.6305 16.324 13.5798 16.3306 13.4654C16.3322 13.449 16.3322 13.4311 16.3322 13.4147L16.3306 4.62779Z" fill="#111111"/>
</svg>
