<svg width="18" height="18" viewBox="0 0 18 18" fill="none" xmlns="http://www.w3.org/2000/svg">
<path d="M16.2074 13.3933L13.0951 10.2808C12.9073 10.0935 12.6529 9.98827 12.3877 9.98827C12.1225 9.98827 11.8681 10.0935 11.6803 10.2808L10.9729 10.9881C10.5728 11.3883 9.27709 10.99 8.14356 9.85637C7.01003 8.72271 6.61102 7.42763 7.01178 7.02698L7.71916 6.31961C7.90647 6.13184 8.01166 5.87745 8.01166 5.61223C8.01166 5.34701 7.90647 5.09262 7.71916 4.90485L4.60667 1.79249C4.41893 1.60519 4.16456 1.5 3.89936 1.5C3.63416 1.5 3.37979 1.60519 3.19204 1.79249L2.48467 2.49987C1.96198 3.02255 1.64362 3.71005 1.5382 4.54335C1.44042 5.31625 1.53058 6.18306 1.80605 7.11927C2.35862 8.99994 3.60482 10.9771 5.31405 12.6859C7.02329 14.3946 9.00012 15.6413 10.8802 16.1939C11.5728 16.3976 12.2271 16.5 12.8336 16.5C13.0419 16.5003 13.2499 16.4876 13.4566 16.4617C14.2899 16.3563 14.9774 16.038 15.5001 15.5153L16.2074 14.8079C16.3947 14.6201 16.4999 14.3658 16.4999 14.1006C16.4999 13.8354 16.3947 13.581 16.2074 13.3933Z" fill="#111111"/>
</svg>
