<svg width="12" height="13" viewBox="0 0 12 13" fill="none" xmlns="http://www.w3.org/2000/svg">
<g clip-path="url(#clip0_906_3464)">
<path d="M5.82075 12.4249C5.84443 12.4486 5.87255 12.4674 5.9035 12.4802C5.93445 12.493 5.96763 12.4996 6.00113 12.4996C6.03463 12.4996 6.0678 12.493 6.09875 12.4802C6.1297 12.4674 6.15782 12.4486 6.1815 12.4249C6.1815 12.4249 9.80321 8.79866 9.81296 8.78441C10.437 8.05524 10.839 7.16244 10.9712 6.21181C11.1034 5.26117 10.9603 4.29257 10.5589 3.42078C10.1574 2.549 9.51443 1.81057 8.70615 1.29303C7.89787 0.775483 6.95815 0.500511 5.99837 0.5007C5.03859 0.500889 4.09899 0.77623 3.29091 1.29409C2.48283 1.81196 1.84015 2.55063 1.43904 3.42258C1.03793 4.29452 0.895207 5.26318 1.02778 6.21376C1.16035 7.16434 1.56267 8.05699 2.18704 8.78591C2.19829 8.80016 5.82075 12.4249 5.82075 12.4249ZM6 3.22922C6.28326 3.22922 6.56374 3.28501 6.82544 3.39341C7.08714 3.50181 7.32492 3.66069 7.52522 3.86099C7.72551 4.06128 7.88439 4.29906 7.99279 4.56076C8.10119 4.82246 8.15698 5.10294 8.15698 5.3862C8.15698 5.66946 8.10119 5.94994 7.99279 6.21164C7.88439 6.47333 7.72551 6.71112 7.52522 6.91141C7.32492 7.11171 7.08714 7.27059 6.82544 7.37899C6.56374 7.48738 6.28326 7.54318 6 7.54318C5.71674 7.54318 5.43626 7.48738 5.17456 7.37899C4.91287 7.27059 4.67508 7.11171 4.47479 6.91141C4.27449 6.71112 4.11561 6.47333 4.00722 6.21164C3.89882 5.94994 3.84302 5.66946 3.84302 5.3862C3.84302 5.10294 3.89882 4.82246 4.00722 4.56076C4.11561 4.29906 4.27449 4.06128 4.47479 3.86099C4.67508 3.66069 4.91287 3.50181 5.17456 3.39341C5.43626 3.28501 5.71674 3.22922 6 3.22922Z" fill="#666666"/>
</g>
<defs>
<clipPath id="clip0_906_3464">
<rect width="12" height="12" fill="white" transform="translate(0 0.5)"/>
</clipPath>
</defs>
</svg>
