<svg width="29" height="28" viewBox="0 0 29 28" fill="none" xmlns="http://www.w3.org/2000/svg">
<g id="Frame">
<path id="Vector" d="M20.425 5.95C20.425 5.6 20.6 5.25 20.775 4.9C21.125 4.725 21.475 4.55 21.825 4.55C22.175 4.55 22.525 4.725 22.875 4.9C23.225 5.075 23.225 5.6 23.225 5.95C23.225 6.3 23.05 6.65 22.875 7C22.525 7.175 22.175 7.35 21.825 7.35C21.475 7.35 21.125 7.175 20.775 7C20.6 6.65 20.425 6.3 20.425 5.95ZM16.575 3.5C16.575 3.15 16.75 2.625 17.1 2.275C17.45 1.925 17.8 1.75 18.325 1.75C18.85 1.75 19.2 1.925 19.55 2.275C19.9 2.625 20.075 2.975 20.075 3.5C20.075 4.025 19.9 4.375 19.55 4.725C19.2 5.075 18.85 5.25 18.325 5.25C17.8 5.25 17.45 5.075 17.1 4.725C16.75 4.375 16.575 4.025 16.575 3.5ZM11.5 2.8C11.5 2.275 11.675 1.75 12.025 1.4C12.375 1.05 12.9 0.875001 13.425 0.875001C13.95 0.875001 14.475 1.05 14.825 1.4C15.175 1.75 15.35 2.275 15.35 2.8C15.35 3.325 15.175 3.85 14.825 4.2C14.475 4.55 13.95 4.725 13.425 4.725C12.9 4.725 12.375 4.55 12.025 4.2C11.675 3.85 11.5 3.325 11.5 2.8ZM5.02499 3.15C5.02499 2.45 5.37499 1.925 5.72499 1.4C6.24999 0.875001 6.94999 0.700001 7.47499 0.700001C8.17499 0.700001 8.875 1.05 9.225 1.4C9.75 1.925 9.925 2.45 9.925 3.15C9.925 3.85 9.575 4.375 9.225 4.9C8.7 5.425 7.99999 5.6 7.47499 5.6C6.77499 5.6 6.07499 5.25 5.72499 4.9C5.19999 4.375 5.02499 3.85 5.02499 3.15ZM16.925 6.3H10.625H10.45H10.1C7.82499 6.475 6.07499 8.225 6.07499 10.5C6.07499 12.075 6.94999 13.3 8.175 14.175C8.175 14.175 10.625 15.4 8.175 21.525C7.99999 22.05 7.825 22.575 7.825 23.1C7.825 25.375 9.75 27.3 12.2 27.3C13.25 27.3 14.3 26.95 15 26.25C19.375 22.75 22.175 17.5 22.175 11.55V11.375C22.175 8.75 19.9 6.3 16.925 6.3Z" fill="#111111"/>
</g>
</svg>
