<svg width="29" height="28" viewBox="0 0 29 28" fill="none" xmlns="http://www.w3.org/2000/svg">
<g id="Frame">
<g id="Group 492">
<path id="Vector" d="M18.4352 4.69699H10.8151C10.7953 4.69699 10.7789 4.68086 10.7789 4.66079V1.4362C10.7789 1.41646 10.795 1.4 10.8151 1.4H18.4356C18.4553 1.4 18.4718 1.41613 18.4718 1.4362V4.66079C18.4714 4.68086 18.4553 4.69699 18.4352 4.69699Z" fill="#111111"/>
<path id="Vector_2" d="M22.4612 3.52241H19.4666C19.4222 4.6055 18.529 5.4796 17.4351 5.4796H11.8149C10.7216 5.4796 9.82778 4.6055 9.78335 3.52241H6.78914C5.13341 3.52241 3.77913 4.87668 3.77913 6.53241V23.59C3.77913 25.2454 5.13341 26.6 6.78914 26.6H22.4609C24.1166 26.6 25.4709 25.2454 25.4709 23.59V6.53241C25.4712 4.87668 24.1169 3.52241 22.4612 3.52241ZM20.271 20.3806H8.97934C8.56335 20.3806 8.22701 20.0439 8.22701 19.6282C8.22701 19.2122 8.56368 18.8759 8.97934 18.8759H20.271C20.687 18.8759 21.0233 19.2126 21.0233 19.6282C21.0236 20.0439 20.687 20.3806 20.271 20.3806ZM20.271 15.7938H8.97934C8.56335 15.7938 8.22701 15.4571 8.22701 15.0415C8.22701 14.6255 8.56368 14.2891 8.97934 14.2891H20.271C20.687 14.2891 21.0233 14.6258 21.0233 15.0415C21.0236 15.4571 20.687 15.7938 20.271 15.7938ZM20.271 11.2067H8.97934C8.56335 11.2067 8.22701 10.87 8.22701 10.4544C8.22701 10.0384 8.56368 9.70204 8.97934 9.70204H20.271C20.687 9.70204 21.0233 10.0387 21.0233 10.4544C21.0236 10.8704 20.687 11.2067 20.271 11.2067Z" fill="#111111"/>
</g>
</g>
</svg>
