<svg width="29" height="28" viewBox="0 0 29 28" fill="none" xmlns="http://www.w3.org/2000/svg">
<g id="Frame" clip-path="url(#clip0_515_2842)">
<path id="Vector" d="M29.4761 10.6083C29.4075 10.3974 29.2813 10.2098 29.1118 10.0669C28.9422 9.9239 28.736 9.83123 28.5165 9.79934L19.8269 8.53669L15.9408 0.662616C15.8427 0.46372 15.6908 0.296254 15.5025 0.179156C15.3141 0.0620579 15.0968 0 14.875 0C14.6532 0 14.4358 0.0620579 14.2474 0.179156C14.0591 0.296254 13.9072 0.46372 13.8091 0.662616L9.92298 8.53673L1.23341 9.79938C1.01394 9.83129 0.807769 9.92397 0.638215 10.0669C0.46866 10.2099 0.342482 10.3974 0.273944 10.6084C0.205407 10.8193 0.197244 11.0452 0.250379 11.2605C0.303514 11.4758 0.415827 11.672 0.574621 11.8268L6.86249 17.956L5.37814 26.6104C5.34063 26.829 5.36504 27.0537 5.4486 27.2592C5.53216 27.4647 5.67154 27.6426 5.85098 27.773C6.03042 27.9034 6.24275 27.9809 6.46398 27.9969C6.6852 28.0129 6.90648 27.9667 7.10279 27.8634L14.875 23.7774L22.6472 27.8634C22.9059 28 23.5023 28.0317 23.899 27.7729C24.2764 27.5268 24.4483 27.0563 24.3718 26.6104L22.8875 17.956L29.1753 11.8268C29.3341 11.672 29.4465 11.4758 29.4996 11.2605C29.5528 11.0452 29.5446 10.8193 29.4761 10.6083Z" fill="#111111"/>
</g>
<defs>
<clipPath id="clip0_515_2842">
<rect width="28" height="28" fill="white" transform="translate(0.875)"/>
</clipPath>
</defs>
</svg>
