<svg width="29" height="28" viewBox="0 0 29 28" fill="none" xmlns="http://www.w3.org/2000/svg">
<g id="Frame">
<path id="Vector" d="M19.2068 2.32362C21.4007 1.98388 23.4607 2.67512 25.128 4.29998C26.8222 5.95163 27.6343 8.12792 27.403 10.4107C27.1743 12.666 25.9774 14.8933 23.9631 16.8566C23.4013 17.4047 21.8907 18.8846 19.7229 21.0105C18.7482 21.967 17.7107 22.9843 16.6653 24.0113L15.6487 25.0083L15.2449 25.4049C15.0127 25.633 14.7002 25.7608 14.3747 25.7608C14.0492 25.7608 13.7367 25.633 13.5044 25.4049L9.99467 21.9553L9.25313 21.2287C7.76438 19.7711 6.27541 18.3137 4.78623 16.8566C2.77197 14.8933 1.5757 12.6667 1.34703 10.4107C1.11575 8.12792 1.9272 5.95163 3.62197 4.29998C5.2893 2.67512 7.34929 1.98453 9.54321 2.32362C11.1713 2.57516 12.823 3.38595 14.3753 4.68023C15.9283 3.38661 17.5793 2.57516 19.2075 2.32362H19.2068Z" fill="#111111"/>
</g>
</svg>
