<svg width="22" height="22" viewBox="0 0 22 22" fill="none" xmlns="http://www.w3.org/2000/svg">
<g clip-path="url(#clip0_1176_7262)">
<path d="M13.4895 4.26482C13.3949 4.75509 13.3043 5.21738 13.323 5.67967C13.3313 5.96512 13.4507 6.23606 13.6557 6.43485C13.8607 6.63365 14.1352 6.74461 14.4207 6.74415L19.0477 6.70418C19.3878 6.70181 19.7246 6.7707 20.0365 6.90643C20.3483 7.04216 20.6283 7.24171 20.8584 7.49222C21.0884 7.74273 21.2635 8.03866 21.3722 8.36093C21.4809 8.6832 21.521 9.02468 21.4897 9.36336L20.5678 19.1115C20.5125 19.715 20.2332 20.276 19.7849 20.6838C19.3366 21.0917 18.7518 21.3169 18.1457 21.315H2.93137C2.28674 21.3143 1.66873 21.0579 1.21291 20.6021C0.757093 20.1463 0.500705 19.5283 0.5 18.8837V10.661C0.5 9.3194 1.59112 8.22828 2.93137 8.22828H3.75603C4.92309 8.22828 6.18474 7.99647 6.61372 7.47822C7.38776 6.54431 7.99127 5.34927 8.4096 3.92909C8.51618 3.56672 8.59479 3.19502 8.67339 2.82598L8.78663 2.29974C8.87589 1.86809 8.97847 1.37915 9.2729 0.946169C9.44657 0.703636 9.66654 0.497889 9.92012 0.3408C10.1737 0.183711 10.4559 0.0783891 10.7504 0.0309097C11.2143 -0.0443974 11.6902 0.0186202 12.1186 0.212096C12.7901 0.514519 13.283 1.13269 13.5081 1.95202C13.5961 2.27176 13.6454 2.61815 13.6507 2.98319C13.66 3.39619 13.5867 3.76389 13.5175 4.1196M2.93137 9.56187C2.63985 9.56257 2.36049 9.67878 2.15449 9.88504C1.94848 10.0913 1.83261 10.3708 1.83226 10.6623V18.8837C1.83226 19.4898 2.32519 19.9828 2.93137 19.9828H18.1457C18.4196 19.9842 18.684 19.8827 18.8866 19.6984C19.0892 19.5141 19.2151 19.2604 19.2395 18.9876L20.1614 9.23946C20.1765 9.08672 20.1591 8.93252 20.1104 8.78697C20.0618 8.64141 19.9829 8.50777 19.879 8.39481C19.7767 8.28109 19.6516 8.19026 19.5118 8.12827C19.3719 8.06628 19.2206 8.03453 19.0676 8.0351L14.4407 8.07507C13.8071 8.08066 13.1963 7.83851 12.7386 7.40024C12.2809 6.96198 12.0126 6.36227 11.9907 5.72897C11.9681 5.11613 12.0773 4.55392 12.1826 4.01036L12.2105 3.86248C12.2718 3.55073 12.3251 3.28028 12.3184 3.0085C12.3169 2.77087 12.2846 2.53444 12.2225 2.30507C12.1546 2.05461 11.9787 1.61096 11.5697 1.42578C11.3825 1.34086 11.1746 1.31261 10.9715 1.34451C10.7351 1.38155 10.5216 1.50732 10.3747 1.69623C10.2281 1.90939 10.1629 2.23046 10.0909 2.57019L9.97633 3.10309C9.89107 3.50543 9.80314 3.90911 9.68723 4.30345C9.21828 5.89816 8.52817 7.25307 7.63956 8.3282C6.71764 9.44196 4.68195 9.56187 3.85062 9.56187H2.93137Z" fill="#333333"/>
<path d="M4.69128 20.6154C4.51461 20.6154 4.34518 20.5452 4.22025 20.4203C4.09533 20.2954 4.02515 20.126 4.02515 19.9493V9.595C4.02515 9.41833 4.09533 9.2489 4.22025 9.12397C4.34518 8.99905 4.51461 8.92887 4.69128 8.92887C4.86794 8.92887 5.03738 8.99905 5.1623 9.12397C5.28722 9.2489 5.3574 9.41833 5.3574 9.595V19.9493C5.3574 20.126 5.28722 20.2954 5.1623 20.4203C5.03738 20.5452 4.86794 20.6154 4.69128 20.6154Z" fill="#333333"/>
</g>
<defs>
<clipPath id="clip0_1176_7262">
<rect width="22" height="22" fill="white"/>
</clipPath>
</defs>
</svg>
