<svg width="22" height="22" viewBox="0 0 22 22" fill="none" xmlns="http://www.w3.org/2000/svg">
<g clip-path="url(#clip0_1182_20131)">
<mask id="path-1-inside-1_1182_20131" fill="white">
<path fill-rule="evenodd" clip-rule="evenodd" d="M13.4859 4.28343L13.4895 4.26482L13.5175 4.1196L13.5212 4.10051C13.5893 3.75073 13.6599 3.3888 13.6507 2.98319C13.6454 2.61815 13.5961 2.27176 13.5081 1.95202C13.283 1.13269 12.7901 0.514519 12.1186 0.212096C11.6902 0.0186203 11.2143 -0.0443974 10.7504 0.0309097C10.4559 0.0783891 10.1737 0.183711 9.92012 0.3408C9.66654 0.497889 9.44657 0.703636 9.2729 0.946169C8.97848 1.37915 8.87589 1.86809 8.78663 2.29974L8.67339 2.82598L8.66901 2.84656C8.59186 3.20883 8.5142 3.57345 8.4096 3.92909C7.99128 5.34927 7.38776 6.54431 6.61372 7.47822C6.47128 7.6503 6.23703 7.7908 5.94491 7.90173V21.315H18.1457C18.7518 21.3169 19.3366 21.0917 19.7849 20.6838C20.2332 20.276 20.5125 19.715 20.5678 19.1115L21.4897 9.36336C21.521 9.02468 21.4809 8.6832 21.3722 8.36093C21.2635 8.03866 21.0884 7.74273 20.8584 7.49222C20.6283 7.24171 20.3483 7.04216 20.0365 6.90643C19.7246 6.7707 19.3878 6.70181 19.0477 6.70418L14.4207 6.74415C14.1352 6.74461 13.8607 6.63365 13.6557 6.43485C13.4507 6.23606 13.3313 5.96512 13.323 5.67967C13.3045 5.22323 13.3926 4.7668 13.4859 4.28343ZM4.22491 21.315V8.21583C4.0684 8.22417 3.91138 8.22828 3.75603 8.22828H2.93137C1.59112 8.22828 0.5 9.3194 0.5 10.661V18.8837C0.500705 19.5283 0.757093 20.1463 1.21291 20.6021C1.66873 21.0579 2.28675 21.3143 2.93137 21.315H4.22491Z"/>
</mask>
<path fill-rule="evenodd" clip-rule="evenodd" d="M13.4859 4.28343L13.4895 4.26482L13.5175 4.1196L13.5212 4.10051C13.5893 3.75073 13.6599 3.3888 13.6507 2.98319C13.6454 2.61815 13.5961 2.27176 13.5081 1.95202C13.283 1.13269 12.7901 0.514519 12.1186 0.212096C11.6902 0.0186203 11.2143 -0.0443974 10.7504 0.0309097C10.4559 0.0783891 10.1737 0.183711 9.92012 0.3408C9.66654 0.497889 9.44657 0.703636 9.2729 0.946169C8.97848 1.37915 8.87589 1.86809 8.78663 2.29974L8.67339 2.82598L8.66901 2.84656C8.59186 3.20883 8.5142 3.57345 8.4096 3.92909C7.99128 5.34927 7.38776 6.54431 6.61372 7.47822C6.47128 7.6503 6.23703 7.7908 5.94491 7.90173V21.315H18.1457C18.7518 21.3169 19.3366 21.0917 19.7849 20.6838C20.2332 20.276 20.5125 19.715 20.5678 19.1115L21.4897 9.36336C21.521 9.02468 21.4809 8.6832 21.3722 8.36093C21.2635 8.03866 21.0884 7.74273 20.8584 7.49222C20.6283 7.24171 20.3483 7.04216 20.0365 6.90643C19.7246 6.7707 19.3878 6.70181 19.0477 6.70418L14.4207 6.74415C14.1352 6.74461 13.8607 6.63365 13.6557 6.43485C13.4507 6.23606 13.3313 5.96512 13.323 5.67967C13.3045 5.22323 13.3926 4.7668 13.4859 4.28343ZM4.22491 21.315V8.21583C4.0684 8.22417 3.91138 8.22828 3.75603 8.22828H2.93137C1.59112 8.22828 0.5 9.3194 0.5 10.661V18.8837C0.500705 19.5283 0.757093 20.1463 1.21291 20.6021C1.66873 21.0579 2.28675 21.3143 2.93137 21.315H4.22491Z" fill="url(#paint0_linear_1182_20131)"/>
<path d="M13.4895 4.26482L13.7841 4.32165L13.7841 4.32157L13.4895 4.26482ZM13.4859 4.28343L13.7805 4.34027L13.7805 4.34026L13.4859 4.28343ZM13.5175 4.1196L13.223 4.06223L13.2229 4.06285L13.5175 4.1196ZM13.5212 4.10051L13.2267 4.04314L13.2267 4.04314L13.5212 4.10051ZM13.6507 2.98319L13.3507 2.98757L13.3508 2.98996L13.6507 2.98319ZM13.5081 1.95202L13.2189 2.03151L13.2189 2.03157L13.5081 1.95202ZM12.1186 0.212096L11.9951 0.485504L11.9954 0.485632L12.1186 0.212096ZM10.7504 0.0309097L10.7981 0.327085L10.7984 0.327034L10.7504 0.0309097ZM9.2729 0.946169L9.02891 0.771464L9.02483 0.777477L9.2729 0.946169ZM8.78663 2.29974L9.07993 2.36286L9.08041 2.36049L8.78663 2.29974ZM8.67339 2.82598L8.3801 2.76287L8.37997 2.76349L8.67339 2.82598ZM8.66901 2.84656L8.96243 2.90905L8.96243 2.90905L8.66901 2.84656ZM8.4096 3.92909L8.69738 4.01386L8.69741 4.01374L8.4096 3.92909ZM6.61372 7.47822L6.38274 7.28678L6.38262 7.28692L6.61372 7.47822ZM5.94491 7.90173L5.83842 7.62126L5.64491 7.69474V7.90173H5.94491ZM5.94491 21.315H5.64491V21.615H5.94491V21.315ZM18.1457 21.315L18.1466 21.015H18.1457V21.315ZM20.5678 19.1115L20.2691 19.0832L20.269 19.0841L20.5678 19.1115ZM21.4897 9.36336L21.7884 9.39161L21.7884 9.39094L21.4897 9.36336ZM19.0477 6.70418L19.0456 6.40418L19.0451 6.40419L19.0477 6.70418ZM14.4207 6.74415L14.4212 7.04415L14.4233 7.04413L14.4207 6.74415ZM13.323 5.67967L13.6229 5.67092L13.6227 5.66758L13.323 5.67967ZM4.22491 21.315V21.615H4.52491V21.315H4.22491ZM4.22491 8.21583H4.52491V7.89941L4.20894 7.91625L4.22491 8.21583ZM0.5 18.8837L0.2 18.8837L0.2 18.884L0.5 18.8837ZM1.21291 20.6021L1.00078 20.8143L1.00078 20.8143L1.21291 20.6021ZM2.93137 21.315L2.93104 21.615H2.93137V21.315ZM13.1949 4.20799L13.1913 4.2266L13.7805 4.34026L13.7841 4.32165L13.1949 4.20799ZM13.2229 4.06285L13.1949 4.20806L13.7841 4.32157L13.8121 4.17636L13.2229 4.06285ZM13.2267 4.04314L13.223 4.06223L13.8119 4.17697L13.8157 4.15788L13.2267 4.04314ZM13.3508 2.98996C13.3591 3.35873 13.2954 3.69047 13.2267 4.04314L13.8157 4.15788C13.8832 3.81099 13.9606 3.41888 13.9506 2.97642L13.3508 2.98996ZM13.2189 2.03157C13.2997 2.32562 13.3458 2.64667 13.3507 2.98757L13.9507 2.97881C13.945 2.58963 13.8924 2.21791 13.7974 1.87248L13.2189 2.03157ZM11.9954 0.485632C12.5721 0.745366 13.0133 1.28327 13.2189 2.03151L13.7974 1.87253C13.5527 0.982098 13.008 0.283671 12.2418 -0.0614393L11.9954 0.485632ZM10.7984 0.327034C11.2042 0.261169 11.6204 0.316286 11.9951 0.485504L12.2421 -0.0613111C11.76 -0.279045 11.2245 -0.349964 10.7023 -0.265215L10.7984 0.327034ZM10.0781 0.595831C10.298 0.459599 10.5427 0.368261 10.7981 0.327085L10.7026 -0.265266C10.369 -0.211482 10.0494 -0.0921764 9.76213 0.08577L10.0781 0.595831ZM9.51682 1.12082C9.66743 0.910492 9.85819 0.732063 10.0781 0.595831L9.76213 0.08577C9.47488 0.263716 9.22571 0.49678 9.02899 0.771515L9.51682 1.12082ZM9.08041 2.36049C9.17093 1.92276 9.26484 1.49154 9.52098 1.11486L9.02483 0.777477C8.69211 1.26677 8.58085 1.81342 8.49285 2.23899L9.08041 2.36049ZM8.96668 2.88909L9.07992 2.36285L8.49334 2.23663L8.3801 2.76287L8.96668 2.88909ZM8.96243 2.90905L8.96681 2.88847L8.37997 2.76349L8.37559 2.78408L8.96243 2.90905ZM8.69741 4.01374C8.80578 3.64529 8.88568 3.26942 8.96243 2.90905L8.37559 2.78407C8.29803 3.14824 8.22263 3.50161 8.12179 3.84444L8.69741 4.01374ZM6.8447 7.66966C7.64991 6.69814 8.2701 5.46443 8.69738 4.01386L8.12183 3.84432C7.71245 5.23412 7.12561 6.39048 6.38274 7.28678L6.8447 7.66966ZM6.05141 8.18219C6.36489 8.06315 6.65466 7.89924 6.84482 7.66951L6.38262 7.28692C6.28789 7.40137 6.10916 7.51846 5.83842 7.62126L6.05141 8.18219ZM5.64491 7.90173V21.315H6.24491V7.90173H5.64491ZM18.1457 21.015H5.94491V21.615H18.1457V21.015ZM19.583 20.4619C19.1902 20.8193 18.6777 21.0167 18.1466 21.015L18.1448 21.615C18.8259 21.6171 19.483 21.3641 19.9868 20.9057L19.583 20.4619ZM20.269 19.0841C20.2206 19.613 19.9758 20.1045 19.583 20.4619L19.9868 20.9057C20.4905 20.4474 20.8044 19.8171 20.8665 19.1388L20.269 19.0841ZM21.191 9.33511L20.2691 19.0832L20.8664 19.1397L21.7884 9.39161L21.191 9.33511ZM21.0879 8.45684C21.1833 8.73941 21.2184 9.03882 21.191 9.33578L21.7884 9.39094C21.8235 9.01054 21.7786 8.627 21.6565 8.26503L21.0879 8.45684ZM20.6374 7.69514C20.8391 7.91479 20.9926 8.17426 21.0879 8.45684L21.6565 8.26503C21.5343 7.90305 21.3377 7.57068 21.0793 7.2893L20.6374 7.69514ZM19.9168 7.18151C20.1902 7.30052 20.4357 7.47548 20.6374 7.69514L21.0793 7.2893C20.8209 7.00793 20.5065 6.7838 20.1562 6.63135L19.9168 7.18151ZM19.0498 7.00417C19.348 7.00209 19.6433 7.0625 19.9168 7.18151L20.1562 6.63135C19.8059 6.47891 19.4276 6.40152 19.0456 6.40419L19.0498 7.00417ZM14.4233 7.04413L19.0503 7.00417L19.0451 6.40419L14.4181 6.44416L14.4233 7.04413ZM13.4468 6.65023C13.7079 6.90342 14.0575 7.04474 14.4212 7.04415L14.4202 6.44415C14.2128 6.44449 14.0134 6.36388 13.8645 6.21948L13.4468 6.65023ZM13.0231 5.68842C13.0337 6.05197 13.1857 6.39704 13.4468 6.65023L13.8645 6.21948C13.7156 6.07508 13.6289 5.87827 13.6228 5.67092L13.0231 5.68842ZM13.1913 4.22659C13.0994 4.7031 13.0031 5.19444 13.0232 5.69177L13.6227 5.66758C13.606 5.25203 13.6859 4.83049 13.7805 4.34027L13.1913 4.22659ZM4.52491 21.315V8.21583H3.92491V21.315H4.52491ZM3.75603 8.52828C3.91663 8.52828 4.07898 8.52403 4.24088 8.5154L4.20894 7.91625C4.05782 7.92431 3.90613 7.92828 3.75603 7.92828V8.52828ZM2.93137 8.52828H3.75603V7.92828H2.93137V8.52828ZM0.8 10.661C0.8 9.48497 1.75691 8.52828 2.93137 8.52828V7.92828C1.42533 7.92828 0.2 9.15382 0.2 10.661H0.8ZM0.8 18.8837V10.661H0.2V18.8837H0.8ZM1.42504 20.39C1.02541 19.9904 0.800618 19.4485 0.8 18.8833L0.2 18.884C0.200792 19.6081 0.488781 20.3023 1.00078 20.8143L1.42504 20.39ZM2.9317 21.015C2.36653 21.0144 1.82468 20.7896 1.42504 20.39L1.00078 20.8143C1.51277 21.3262 2.20697 21.6142 2.93104 21.615L2.9317 21.015ZM4.22491 21.015H2.93137V21.615H4.22491V21.015Z" fill="url(#paint1_linear_1182_20131)" mask="url(#path-1-inside-1_1182_20131)"/>
</g>
<defs>
<linearGradient id="paint0_linear_1182_20131" x1="5.95256" y1="3.36174" x2="18.7359" y2="21.315" gradientUnits="userSpaceOnUse">
<stop stop-color="#F6BD2A"/>
<stop offset="1" stop-color="#FC7C35"/>
</linearGradient>
<linearGradient id="paint1_linear_1182_20131" x1="11" y1="0" x2="11" y2="21.315" gradientUnits="userSpaceOnUse">
<stop stop-color="white" stop-opacity="0.19"/>
<stop offset="1" stop-color="white" stop-opacity="0.12"/>
</linearGradient>
<clipPath id="clip0_1182_20131">
<rect width="22" height="22" fill="white"/>
</clipPath>
</defs>
</svg>
