<svg width="22" height="22" viewBox="0 0 22 22" fill="none" xmlns="http://www.w3.org/2000/svg">
<rect width="22" height="22" fill="#F5F5F5"/>
<g id="&#232;&#181;&#132;&#232;&#174;&#175;&#232;&#175;&#166;&#230;&#131;&#133;">
<g clip-path="url(#clip0_470_15034)">
<rect x="-337" y="-4029" width="375" height="4098" rx="46" fill="#F2F1F6"/>
<g id="Frame 1000003987">
<rect width="375" height="379" transform="translate(-337 -326)" fill="white"/>
</g>
<g id="&#229;&#186;&#149;&#233;&#131;&#168;&#229;&#138;&#159;&#232;&#131;&#189;" filter="url(#filter0_b_470_15034)">
<rect width="375" height="82" transform="translate(-337 -13)" fill="white" fill-opacity="0.8"/>
<g id="&#229;&#186;&#149;&#233;&#131;&#168;&#229;&#138;&#159;&#232;&#131;&#189;_2">
<rect width="375" height="48" transform="translate(-337 -13)" fill="white"/>
<g id="Frame 1000004003">
<g id="Frame">
<path id="Vector" d="M6.5 2.44775C3.46244 2.44775 1 5.08629 1 8.34105C1 14.2343 7.5 19.5919 11 20.8381C14.5 19.5919 21 14.2343 21 8.34105C21 5.08629 18.5375 2.44775 15.5 2.44775C13.6399 2.44775 11.9954 3.43724 11 4.95176C10.0046 3.43724 8.36015 2.44775 6.5 2.44775Z" stroke="#111111" stroke-width="1.4" stroke-linecap="round" stroke-linejoin="round"/>
</g>
</g>
</g>
</g>
</g>
</g>
<defs>
<filter id="filter0_b_470_15034" x="-472.914" y="-148.914" width="646.828" height="353.828" filterUnits="userSpaceOnUse" color-interpolation-filters="sRGB">
<feFlood flood-opacity="0" result="BackgroundImageFix"/>
<feGaussianBlur in="BackgroundImageFix" stdDeviation="67.957"/>
<feComposite in2="SourceAlpha" operator="in" result="effect1_backgroundBlur_470_15034"/>
<feBlend mode="normal" in="SourceGraphic" in2="effect1_backgroundBlur_470_15034" result="shape"/>
</filter>
<clipPath id="clip0_470_15034">
<rect x="-337" y="-4029" width="375" height="4098" rx="46" fill="white"/>
</clipPath>
</defs>
</svg>
