<svg width="67" height="75" viewBox="0 0 67 75" fill="none" xmlns="http://www.w3.org/2000/svg">
<g clip-path="url(#clip0_2217_13568)">
<path d="M18.1121 62.195C18.623 62.8827 19.7432 61.0384 19.7432 61.0384C19.7432 61.0384 26.8521 51.7721 20.2511 50.1216C13.6501 48.4714 7.81091 51.7718 7.81091 51.7718C7.81091 51.7718 18.0933 55.7072 17.3315 61.0384C17.1411 62.3715 17.8615 61.8832 18.1121 62.195Z" fill="#EFDFD4"/>
<path d="M17.9639 62.5597C21.8782 63.8928 24.057 67.1299 24.057 67.1299C21.2643 55.7052 8.40002 61.7981 8.40002 61.7981C8.40002 61.7981 14.0497 61.2269 17.9639 62.5597Z" fill="#EFDFD4"/>
<path d="M31.8409 71.7985L33.5008 71.3102L31.8409 68.869L28.8741 67.1299H26.9586C26.9586 67.1299 29.4157 68.1741 30.6361 69.3412C31.8565 70.5084 31.8409 71.7985 31.8409 71.7985Z" fill="#EFDFD4"/>
<path fill-rule="evenodd" clip-rule="evenodd" d="M28.4557 67.3885C25.3337 66.6102 22.1815 67.8526 20.3797 70.2884C20.2997 70.3965 20.1473 70.4193 20.0391 70.3393C19.931 70.2594 19.9082 70.1069 19.9882 69.9988C21.9031 67.4101 25.2538 66.0884 28.5735 66.9159L28.5735 66.9159C31.8714 67.7383 34.2008 70.4496 34.6971 73.6075C34.718 73.7404 34.6272 73.865 34.4944 73.8859C34.3615 73.9067 34.2369 73.816 34.216 73.6831C33.749 70.7116 31.5571 68.1619 28.4557 67.3885Z" fill="#8F5A2A"/>
<path d="M41.0213 67.6986C42.242 67.2591 42.486 67.6986 42.486 67.6986L44.2433 64.4763L39.6355 66.6246L37.6035 69.4561C37.6035 69.4561 39.8006 68.1381 41.0213 67.6986Z" fill="#EFDFD4"/>
<path d="M55.8643 64.3795L48.2482 59.1066L42.3893 60.1806V68.383C42.3893 68.383 45.3675 65.3805 48.7362 64.3795C52.1049 63.3786 55.8643 64.3795 55.8643 64.3795Z" fill="#EFDFD4"/>
<path d="M52.7397 48.463L50.2986 62.0357L54.2044 63.0124C54.2044 63.0124 54.2532 59.8632 56.9386 57.0559C59.6241 54.2486 64.9455 51.7829 64.9455 51.7829L52.7397 48.463Z" fill="#EFDFD4"/>
<path fill-rule="evenodd" clip-rule="evenodd" d="M66.9666 40.8042C66.9666 44.7541 66.2825 48.5439 65.0261 52.0621C64.5204 51.9946 64.0045 51.9598 63.4805 51.9598C57.4584 51.9598 52.5107 56.5592 51.9579 62.4368C51.4459 62.333 50.9157 62.2787 50.3727 62.2787C47.3298 62.2787 44.6862 63.9888 43.3503 66.5005C43.0918 66.4751 42.8293 66.462 42.5638 66.462C41.4661 66.462 40.4206 66.6845 39.4696 67.087L36.6255 53.912H32.8845L29.8605 67.9206C28.8272 67.519 27.7032 67.2987 26.5278 67.2987C25.5327 67.2987 24.5745 67.4565 23.6768 67.7488C23.354 64.9543 21.7982 62.5355 19.5675 61.0502C18.4309 55.8517 13.8002 51.9598 8.26065 51.9598C6.17094 51.9598 4.21058 52.5136 2.51835 53.4825C0.916517 49.5722 0.0334473 45.2913 0.0334473 40.8042C0.0334473 22.3211 15.0169 7.33759 33.5 7.33759C51.983 7.33759 66.9666 22.3211 66.9666 40.8042Z" fill="#ECD4B8"/>
<path fill-rule="evenodd" clip-rule="evenodd" d="M36.6255 53.912L39.3499 66.5326L39.4696 67.087C39.6422 67.0139 39.8179 66.9467 39.9967 66.8856C40.8021 66.6109 41.6655 66.462 42.5638 66.462C42.8293 66.462 43.0918 66.4751 43.3503 66.5005C44.6862 63.9888 47.3298 62.2787 50.3727 62.2787C50.723 62.2787 51.068 62.3013 51.4063 62.3453C51.5923 62.3693 51.7764 62.4 51.9579 62.4368C51.9755 62.2502 51.9975 62.065 52.0237 61.8812C52.8258 56.2719 57.6495 51.9598 63.4805 51.9598C64.0045 51.9598 64.5204 51.9946 65.0261 52.0621C66.2825 48.5439 66.9666 44.7541 66.9666 40.8042C66.9666 22.3211 51.983 7.33759 33.5 7.33759C15.0169 7.33759 0.0334473 22.3211 0.0334473 40.8042C0.0334473 45.0921 0.839875 49.1918 2.30934 52.9596C2.37759 53.1347 2.44726 53.309 2.51835 53.4825C2.68043 53.3896 2.84498 53.3007 3.01186 53.2156C4.5873 52.4127 6.3711 51.9598 8.26065 51.9598C13.8002 51.9598 18.4309 55.8517 19.5675 61.0502C21.6479 62.4354 23.1413 64.6328 23.5949 67.1893C23.6277 67.374 23.655 67.5605 23.6768 67.7488C23.8554 67.6908 24.0364 67.6378 24.2196 67.5907C24.9572 67.3999 25.7307 67.2987 26.5278 67.2987C27.505 67.2987 28.4468 67.4509 29.3303 67.7332C29.5094 67.7903 29.6862 67.8528 29.8605 67.9206L29.9796 67.3689L32.8845 53.912H36.6255ZM29.4486 67.1852L32.4343 53.3542H37.0756L39.8781 66.3365C40.7412 66.0483 41.6364 65.9042 42.5638 65.9042C42.7221 65.9042 42.8799 65.9086 43.0374 65.9173C43.7499 64.7001 44.7139 63.7184 45.9295 62.9723C47.289 62.138 48.77 61.7209 50.3727 61.7209C50.7423 61.7209 51.1086 61.7443 51.4715 61.7912C51.8651 58.9563 53.1384 56.5535 55.2915 54.5827C57.6081 52.4622 60.3378 51.402 63.4805 51.402C63.8715 51.402 64.2601 51.4204 64.6465 51.4572C65.8214 48.0245 66.4088 44.4735 66.4088 40.8042C66.4088 22.6292 51.6751 7.89536 33.5 7.89536C15.325 7.89536 0.591224 22.6292 0.591224 40.8042C0.591224 44.9301 1.32899 48.8935 2.80451 52.6944C4.50372 51.8328 6.32244 51.402 8.26065 51.402C11.1382 51.402 13.6905 52.309 15.9175 54.1231C18.0542 55.8638 19.436 58.0602 20.0626 60.7124C22.3186 62.2764 23.6768 64.3842 24.1373 67.0357C24.9157 66.8391 25.7126 66.7409 26.5278 66.7409C27.5327 66.7409 28.5063 66.889 29.4486 67.1852Z" fill="#8F5A2A"/>
<path fill-rule="evenodd" clip-rule="evenodd" d="M55.8133 64.5738C53.726 62.4075 50.4683 61.5761 47.4842 62.7218L47.4842 62.7218C44.4803 63.8747 42.6109 66.7005 42.532 69.7293C42.5285 69.8637 42.4166 69.9699 42.2822 69.9664C42.1478 69.9629 42.0416 69.8511 42.0451 69.7166C42.129 66.4978 44.1156 63.4931 47.3097 62.2671C50.4829 61.0489 53.9458 61.9338 56.164 64.2359C56.2573 64.3327 56.2545 64.4869 56.1576 64.5802C56.0608 64.6735 55.9066 64.6706 55.8133 64.5738Z" fill="#8F5A2A"/>
<path d="M21.142 48.3336L27.9081 35.6269V26.3001H26.1413C26.1413 26.3001 22.3918 28.9634 21.142 34.4717C19.8922 39.9801 21.142 48.3336 21.142 48.3336Z" fill="white"/>
<path fill-rule="evenodd" clip-rule="evenodd" d="M26.0636 26.0566H28.1516V35.6877L21.0103 49.0991L20.9012 48.3697L21.142 48.3336C20.9012 48.3697 20.9012 48.3698 20.9012 48.3697L20.9002 48.3631L20.8975 48.3446C20.8951 48.3283 20.8917 48.3042 20.8872 48.2726C20.8782 48.2094 20.8653 48.1163 20.8494 47.996C20.8174 47.7553 20.7733 47.4059 20.7243 46.9695C20.6263 46.0969 20.5086 44.8759 20.4302 43.482C20.2737 40.6999 20.2718 37.2065 20.9046 34.4179C21.5394 31.62 22.8093 29.544 23.9209 28.1673C24.4767 27.479 24.9935 26.9648 25.3726 26.6218C25.5621 26.4502 25.7174 26.3214 25.8261 26.2348C25.8804 26.1915 25.9231 26.1588 25.9527 26.1366C25.9675 26.1255 25.9789 26.1171 25.9869 26.1112L25.9963 26.1044L25.999 26.1025L25.9998 26.1019L26.0001 26.1017C26.0002 26.1016 26.0003 26.1016 26.1413 26.3001L26.0003 26.1016L26.0636 26.0566ZM26.222 26.5436C26.1978 26.562 26.1668 26.5861 26.1295 26.6158C26.0282 26.6964 25.8808 26.8187 25.6993 26.9829C25.3363 27.3114 24.8376 27.8073 24.2998 28.4733C23.2242 29.8053 21.9945 31.8152 21.3795 34.5256C20.7624 37.2454 20.7605 40.6829 20.9165 43.4546C20.9943 44.8376 21.111 46.0493 21.2083 46.9151C21.2352 47.1546 21.2606 47.3676 21.2832 47.5503L27.6646 35.5661V26.5436H26.222Z" fill="#8F5A2A"/>
<path d="M41.1753 26.3001V35.6269L48.0312 48.3336C48.0312 48.3336 49.2976 39.9801 48.0312 34.4717C46.7648 28.9634 42.9655 26.3001 42.9655 26.3001H41.1753Z" fill="white"/>
<path fill-rule="evenodd" clip-rule="evenodd" d="M40.9318 26.0566H43.0423L43.1052 26.1007L42.9655 26.3001C43.1052 26.1007 43.1053 26.1008 43.1054 26.1008L43.1057 26.1011L43.1066 26.1016L43.1093 26.1036L43.1187 26.1103C43.1268 26.1162 43.1385 26.1246 43.1534 26.1357C43.1833 26.1579 43.2266 26.1906 43.2816 26.2338C43.3917 26.3204 43.549 26.4492 43.7411 26.6207C44.1251 26.9636 44.6487 27.4778 45.2119 28.1661C46.3382 29.5427 47.6251 31.6188 48.2685 34.4172C48.9097 37.2062 48.9078 40.7 48.7492 43.4822C48.6697 44.8762 48.5506 46.0972 48.4512 46.9699C48.4016 47.4063 48.3568 47.7557 48.3245 47.9964C48.3083 48.1167 48.2952 48.2098 48.2861 48.273C48.2816 48.3046 48.2781 48.3288 48.2757 48.3451L48.2729 48.3636L48.272 48.37C48.272 48.3701 48.2719 48.3701 48.0312 48.3336L48.272 48.37L48.1628 49.0903L40.9318 35.6884V26.0566ZM47.8902 47.5595C47.9134 47.3746 47.9396 47.1584 47.9673 46.9148C48.0659 46.049 48.1842 44.8374 48.263 43.4545C48.421 40.6828 48.4191 37.2457 47.7939 34.5263C47.1708 31.8164 45.9249 29.8066 44.8349 28.4745C44.29 27.8085 43.7846 27.3125 43.4167 26.9839C43.2328 26.8197 43.0834 26.6974 42.9807 26.6168C42.9422 26.5865 42.9104 26.5621 42.8857 26.5436H41.4188V35.5654L47.8902 47.5595Z" fill="#8F5A2A"/>
<path fill-rule="evenodd" clip-rule="evenodd" d="M30.4459 44.7134C27.87 40.5479 26.1401 32.8291 26.1401 23.9955C26.1401 10.7432 30.488 0 34.8362 0C39.184 0 43.5319 10.7432 43.5319 23.9955C43.5319 32.8291 41.8022 40.5479 39.2261 44.7134H30.4459Z" fill="white"/>
<path fill-rule="evenodd" clip-rule="evenodd" d="M26.1401 23.9955C26.1401 32.8291 27.87 40.5479 30.4459 44.7134H39.2261C41.8022 40.5479 43.5319 32.8291 43.5319 23.9955C43.5319 10.7432 39.184 0 34.8362 0C30.488 0 26.1401 10.7432 26.1401 23.9955ZM38.9116 44.1556C40.1139 42.1171 41.0766 39.395 41.7995 35.9892C42.5826 32.2993 42.9741 28.3014 42.9741 23.9955C42.9741 17.5763 42.0802 11.9858 40.2923 7.22419C39.4888 5.08383 38.592 3.42385 37.6019 2.24426C36.6583 1.11994 35.7364 0.557776 34.8362 0.557774C33.9359 0.557774 33.014 1.11993 32.0704 2.24426C31.0804 3.42385 30.1835 5.08383 29.3797 7.22419C27.5918 11.9858 26.6979 17.5762 26.6979 23.9955C26.6979 28.3014 27.0895 32.2993 27.8727 35.9892C28.5957 39.3952 29.5584 42.1173 30.7608 44.1556H38.9116Z" fill="#8F5A2A"/>
<path fill-rule="evenodd" clip-rule="evenodd" d="M38.8443 44.7134H34.3367V0.0470499C34.4903 0.0158386 34.6443 0 34.798 0C38.8056 0 42.8129 10.7432 42.8129 23.9955C42.8129 32.8291 41.2185 40.5479 38.8443 44.7134Z" fill="#EEDEBF"/>
<path fill-rule="evenodd" clip-rule="evenodd" d="M40.381 5.94245H29.2913C30.8631 2.24258 32.8496 0 34.8361 0C36.8227 0 38.8092 2.24258 40.381 5.94245Z" fill="#E16943"/>
<path fill-rule="evenodd" clip-rule="evenodd" d="M39.7739 5.94245H40.381C40.3004 5.75267 40.2187 5.5667 40.1359 5.38467C38.6053 2.0184 36.7206 0 34.8361 0C32.9514 0 31.0667 2.0184 29.5361 5.38467C29.4536 5.5667 29.3719 5.75267 29.2913 5.94245H39.7739ZM39.5242 5.38467H30.1477C31.6327 2.16674 33.1955 0.557777 34.8361 0.557777C36.4766 0.557777 38.0393 2.16674 39.5242 5.38467Z" fill="#8F5A2A"/>
<path fill-rule="evenodd" clip-rule="evenodd" d="M28.4379 40.2464C29.0216 41.995 29.6982 43.5038 30.4459 44.7131H39.2261C39.9741 43.5038 40.6507 41.995 41.2341 40.2464H28.4379Z" fill="#FAB980"/>
<path fill-rule="evenodd" clip-rule="evenodd" d="M28.63 40.8042C28.565 40.621 28.5009 40.4352 28.4379 40.2464H41.2341C41.1711 40.4352 41.1072 40.621 41.0419 40.8042C40.5037 42.3174 39.8932 43.6344 39.2261 44.7131H30.4459C29.7788 43.6344 29.1683 42.3174 28.63 40.8042ZM29.2227 40.8042C29.6895 42.0893 30.2023 43.2064 30.761 44.1553H38.9112C39.4699 43.2064 39.9826 42.0893 40.4493 40.8042H29.2227Z" fill="#8F5A2A"/>
<path d="M34.7862 26.3002C37.5665 26.3002 39.8203 24.0463 39.8203 21.2661C39.8203 18.4858 37.5665 16.2319 34.7862 16.2319C32.0059 16.2319 29.7521 18.4858 29.7521 21.2661C29.7521 24.0463 32.0059 26.3002 34.7862 26.3002Z" fill="#EDE5E0"/>
<path fill-rule="evenodd" clip-rule="evenodd" d="M34.7863 26.3002C37.5665 26.3002 39.8205 24.0463 39.8205 21.266C39.8205 18.4858 37.5665 16.2319 34.7863 16.2319C32.006 16.2319 29.7523 18.4858 29.7523 21.266C29.7523 24.0463 32.006 26.3002 34.7863 26.3002ZM34.7863 16.7897C37.2586 16.7897 39.2627 18.7938 39.2627 21.266C39.2627 23.7382 37.2586 25.7424 34.7863 25.7424C32.3142 25.7424 30.3101 23.7382 30.3101 21.266C30.3101 18.7938 32.3142 16.7897 34.7863 16.7897Z" fill="#8F5A2A"/>
<path d="M34.7863 24.9057C36.7964 24.9057 38.426 23.2762 38.426 21.266C38.426 19.2559 36.7964 17.6264 34.7863 17.6264C32.7761 17.6264 31.1466 19.2559 31.1466 21.266C31.1466 23.2762 32.7761 24.9057 34.7863 24.9057Z" fill="#E16943"/>
<path fill-rule="evenodd" clip-rule="evenodd" d="M34.7862 24.9057C36.7965 24.9057 38.426 23.2762 38.426 21.266C38.426 19.2559 36.7965 17.6263 34.7862 17.6263C32.776 17.6263 31.1467 19.2559 31.1467 21.266C31.1467 23.2762 32.776 24.9057 34.7862 24.9057ZM34.7862 18.1841C36.4883 18.1841 37.8682 19.5639 37.8682 21.266C37.8682 22.9681 36.4883 24.3479 34.7862 24.3479C33.0842 24.3479 31.7045 22.9681 31.7045 21.266C31.7045 19.5639 33.0842 18.1841 34.7862 18.1841Z" fill="#8F5A2A"/>
<path d="M35.0338 19.7481L33.3605 21.7004" stroke="white" stroke-width="2"/>
<path d="M36.1494 20.5848L34.4761 22.537" stroke="white" stroke-width="2"/>
<path d="M29.4435 51.6421H40.4099L38.9078 45.5453H30.7958L29.4435 51.6421Z" fill="white"/>
<path fill-rule="evenodd" clip-rule="evenodd" d="M30.0149 51.6421H29.4435L30.7958 45.5453H38.9078L40.2727 51.0843L40.4099 51.6421H30.0149ZM30.1385 51.0843H39.6982L38.4708 46.1031H31.2434L30.1385 51.0843Z" fill="#8F5A2A"/>
<path d="M16.3483 26.1626H18.5794" stroke="white" stroke-width="2"/>
<path d="M17.4639 25.047V27.2781" stroke="white" stroke-width="2"/>
<path d="M60.9706 14.0588H63.9826" stroke="#404040"/>
<path d="M62.4764 12.5529V15.5648" stroke="#404040"/>
</g>
<defs>
<clipPath id="clip0_2217_13568">
<rect width="66.9333" height="75" fill="white" transform="translate(0.0333252)"/>
</clipPath>
</defs>
</svg>
