<svg width="14" height="14" viewBox="0 0 14 14" fill="none" xmlns="http://www.w3.org/2000/svg">
<g clip-path="url(#clip0_1366_3184)">
<path d="M9.625 1.75H8.75V0.875H5.25V1.75H4.375V3.5H9.625V1.75Z" fill="#111111"/>
<path d="M11.375 1.75H10.5V4.375H3.52734V1.75H2.625C1.6584 1.75 0.875 2.5334 0.875 3.5V11.375C0.875 12.3416 1.6584 13.125 2.625 13.125H11.375C12.3416 13.125 13.125 12.3416 13.125 11.375V3.5C13.125 2.5334 12.3416 1.75 11.375 1.75ZM4.37637 9.625H3.50137V8.75H4.37637V9.625ZM4.37637 7H3.50137V6.125H4.37637V7ZM10.5 9.625H5.25V8.75H10.5V9.625ZM10.5 7H5.25V6.125H10.5V7Z" fill="#111111"/>
</g>
<defs>
<clipPath id="clip0_1366_3184">
<rect width="14" height="14" fill="white"/>
</clipPath>
</defs>
</svg>
