<svg width="18" height="18" viewBox="0 0 18 18" fill="none" xmlns="http://www.w3.org/2000/svg">
<path d="M3.6967 6.75C2.33947 7.875 1.5 9 1.5 9C1.5 9 4.85786 13.5 9 13.5C9.51371 13.5 10.0153 13.4308 10.5 13.3095M7.51192 4.6875C7.9929 4.5681 8.49052 4.5 9 4.5C13.1421 4.5 16.5 9 16.5 9C16.5 9 15.6605 10.125 14.3033 11.25" stroke="#333333" stroke-width="1.5" stroke-linecap="round" stroke-linejoin="round"/>
<path d="M7.61782 7.73291C7.31179 8.06659 7.125 8.51145 7.125 8.99992C7.125 10.0354 7.96448 10.8749 9 10.8749C9.51101 10.8749 9.97429 10.6705 10.3125 10.3389" stroke="#333333" stroke-width="1.5" stroke-linecap="round" stroke-linejoin="round"/>
<path d="M15.75 15.75L2.25 2.25" stroke="#333333" stroke-width="1.5" stroke-linecap="round" stroke-linejoin="round"/>
</svg>
