<svg width="24" height="24" viewBox="0 0 24 24" fill="none" xmlns="http://www.w3.org/2000/svg">
<g clip-path="url(#clip0_523_13267)">
<path fill-rule="evenodd" clip-rule="evenodd" d="M20.0138 20.0142C15.5879 24.4401 8.41203 24.4401 3.98608 20.0142C-0.439859 15.5883 -0.43986 8.41239 3.98608 3.98645C8.41203 -0.439493 15.5879 -0.439493 20.0138 3.98645C24.4398 8.41239 24.4398 15.5883 20.0138 20.0142ZM15.5686 9.5586C15.8798 9.2474 15.8798 8.74285 15.5686 8.43165C15.2574 8.12045 14.7529 8.12045 14.4417 8.43165L12 10.8734L9.55823 8.43165C9.24703 8.12045 8.74248 8.12045 8.43128 8.43165C8.12008 8.74285 8.12008 9.2474 8.43128 9.5586L10.873 12.0003L8.43128 14.4421C8.12008 14.7533 8.12008 15.2578 8.43128 15.569C8.74248 15.8802 9.24703 15.8802 9.55823 15.569L12 13.1273L14.4417 15.569C14.7529 15.8802 15.2574 15.8802 15.5686 15.569C15.8798 15.2578 15.8798 14.7533 15.5686 14.4421L13.1269 12.0003L15.5686 9.5586Z" fill="#999999"/>
</g>
<defs>
<clipPath id="clip0_523_13267">
<rect width="24" height="24" fill="white"/>
</clipPath>
</defs>
</svg>
