<svg width="22" height="23" viewBox="0 0 22 23" fill="none" xmlns="http://www.w3.org/2000/svg">
<rect x="1" y="1.01031" width="20" height="20" rx="4" fill="#F86310"/>
<path fill-rule="evenodd" clip-rule="evenodd" d="M9.47949 16.2466C9.78662 16.2466 10.0522 16.1055 10.2515 15.7984L15.8296 7.05768C15.9541 6.87506 16.062 6.65094 16.062 6.45172C16.062 6.01178 15.6719 5.73785 15.2651 5.73785C15.0244 5.73785 14.7837 5.87897 14.6011 6.16119L9.43799 14.3707L6.69043 10.9258C6.47461 10.6519 6.25049 10.5523 5.98486 10.5523C5.57812 10.5523 5.23779 10.876 5.23779 11.316C5.23779 11.5235 5.3208 11.7476 5.46191 11.9219L8.66602 15.8067C8.92334 16.1221 9.17236 16.2466 9.47949 16.2466Z" fill="white"/>
</svg>
