<svg width="18" height="18" viewBox="0 0 18 18" fill="none" xmlns="http://www.w3.org/2000/svg">
<path fill-rule="evenodd" clip-rule="evenodd" d="M14.6569 14.6569C11.5327 17.7811 6.46734 17.7811 3.34315 14.6569C0.218951 11.5327 0.218951 6.46734 3.34315 3.34315C6.46734 0.218951 11.5327 0.218951 14.6569 3.34315C17.7811 6.46734 17.7811 11.5327 14.6569 14.6569ZM11.5191 7.27643C11.7387 7.05676 11.7387 6.7006 11.5191 6.48093C11.2994 6.26126 10.9432 6.26126 10.7236 6.48093L9 8.20451L7.27643 6.48093C7.05676 6.26126 6.7006 6.26126 6.48093 6.48093C6.26126 6.7006 6.26126 7.05676 6.48093 7.27643L8.20451 9L6.48093 10.7236C6.26126 10.9432 6.26126 11.2994 6.48093 11.5191C6.7006 11.7387 7.05676 11.7387 7.27643 11.5191L9 9.7955L10.7236 11.5191C10.9432 11.7387 11.2994 11.7387 11.5191 11.5191C11.7387 11.2994 11.7387 10.9432 11.5191 10.7236L9.7955 9L11.5191 7.27643Z" fill="#666666"/>
</svg>
