<svg width="32" height="32" viewBox="0 0 32 32" fill="none" xmlns="http://www.w3.org/2000/svg">
<rect x="0.5" y="0.5" width="31" height="31" rx="15.5" fill="url(#paint0_linear_1662_7794)"/>
<rect x="0.5" y="0.5" width="31" height="31" rx="15.5" stroke="url(#paint1_linear_1662_7794)"/>
<path d="M23.8152 11.6105C23.8132 11.6105 23.8112 11.6097 23.8098 11.6083C23.8083 11.6068 23.8075 11.6049 23.8075 11.6028C23.6967 11.4141 23.5379 11.258 23.3474 11.1503L16.5982 7.35394C16.4153 7.25184 16.2094 7.19824 16 7.19824C15.7906 7.19824 15.5846 7.25184 15.4018 7.35394L8.65259 11.1503C8.46202 11.258 8.30327 11.4141 8.19242 11.6028C8.19242 11.6049 8.19161 11.6068 8.19017 11.6083C8.18873 11.6097 8.18678 11.6105 8.18475 11.6105V11.6259C8.07871 11.8045 8.02306 12.0086 8.02369 12.2164V19.7785C8.02407 19.9972 8.0825 20.2118 8.193 20.4004C8.30349 20.5891 8.46209 20.745 8.65259 20.8523L15.4018 24.6487C15.5717 24.7414 15.7606 24.7938 15.954 24.8021H16.0613C16.2498 24.7937 16.4337 24.7412 16.5982 24.6487L23.3474 20.8523C23.5379 20.745 23.6965 20.5891 23.807 20.4004C23.9175 20.2118 23.9759 19.9972 23.9763 19.7785V12.2164C23.9774 12.0037 23.9218 11.7946 23.8152 11.6105ZM16 8.42L22.1126 11.8559L19.7657 13.1904L13.5764 9.7775L16 8.42ZM16.069 15.2919L9.89505 11.8559L12.3186 10.4908L18.5156 13.9037L16.069 15.2919ZM16.6212 23.2298L16.6826 16.3579L19.1445 14.9544V17.8765C19.1445 18.0392 19.2091 18.1953 19.3242 18.3104C19.4393 18.4254 19.5953 18.4901 19.758 18.4901C19.9208 18.4901 20.0768 18.4254 20.1919 18.3104C20.307 18.1953 20.3716 18.0392 20.3716 17.8765V14.2565L22.7491 12.9067V19.7785L16.6212 23.2298Z" fill="url(#paint2_linear_1662_7794)"/>
<defs>
<linearGradient id="paint0_linear_1662_7794" x1="32" y1="32" x2="0" y2="0" gradientUnits="userSpaceOnUse">
<stop stop-color="#F3DFB5"/>
<stop offset="1" stop-color="#F1DBB0"/>
</linearGradient>
<linearGradient id="paint1_linear_1662_7794" x1="16" y1="0" x2="16" y2="32" gradientUnits="userSpaceOnUse">
<stop stop-color="#FFFBEF"/>
<stop offset="1" stop-color="#F9ECC7"/>
</linearGradient>
<linearGradient id="paint2_linear_1662_7794" x1="16" y1="7.19824" x2="16" y2="24.8021" gradientUnits="userSpaceOnUse">
<stop stop-color="#BE903A"/>
<stop offset="1" stop-color="#947130"/>
</linearGradient>
</defs>
</svg>
