<svg width="20" height="19" viewBox="0 0 20 19" fill="none" xmlns="http://www.w3.org/2000/svg">
<path d="M19.896 7.32267L16.4255 0.684853C16.3482 0.536934 16.2318 0.41302 16.089 0.32655C15.9462 0.24008 15.7825 0.194356 15.6156 0.194336H4.38455C4.21763 0.194356 4.05389 0.24008 3.91111 0.32655C3.76833 0.41302 3.65195 0.536934 3.57459 0.684853L0.104108 7.32267C0.0185395 7.48626 -0.0154855 7.67192 0.00651267 7.85522C0.0285108 8.03852 0.105501 8.21087 0.227347 8.34956L9.31333 18.6896C9.39911 18.7872 9.50472 18.8654 9.62311 18.9189C9.7415 18.9725 9.86996 19.0002 9.9999 19.0002C10.1299 19.0002 10.2583 18.9725 10.3767 18.9189C10.4951 18.8654 10.6007 18.7872 10.6865 18.6896L19.7725 8.34956C19.8944 8.2109 19.9714 8.03857 19.9935 7.85527C20.0155 7.67197 19.9815 7.48629 19.896 7.32267ZM16.0124 7.75637L10.6784 13.6645C10.5927 13.7594 10.4881 13.8353 10.3712 13.8873C10.2544 13.9392 10.1279 13.9661 10.0001 13.9661C9.87218 13.9661 9.74573 13.9392 9.62888 13.8873C9.51203 13.8353 9.40738 13.7594 9.32171 13.6645L3.98742 7.75637C3.82498 7.57642 3.74069 7.33931 3.75307 7.09721C3.76545 6.85511 3.87351 6.62785 4.05345 6.46541C4.2334 6.30298 4.47051 6.21868 4.71261 6.23106C4.95471 6.24345 5.18198 6.3515 5.34441 6.53145L10.0001 11.6881L14.6557 6.53145C14.7356 6.44053 14.8328 6.36639 14.9416 6.31333C15.0504 6.26028 15.1687 6.22937 15.2895 6.2224C15.4104 6.21542 15.5314 6.23252 15.6456 6.27271C15.7598 6.31289 15.8649 6.37536 15.9547 6.45648C16.0446 6.5376 16.1174 6.63576 16.169 6.74527C16.2206 6.85477 16.2499 6.97343 16.2553 7.09436C16.2607 7.2153 16.242 7.33609 16.2003 7.44974C16.1586 7.56338 16.0947 7.66761 16.0124 7.75637Z" fill="#9D7A21"/>
</svg>
