<svg width="18" height="18" viewBox="0 0 18 18" fill="none" xmlns="http://www.w3.org/2000/svg">
<path fill-rule="evenodd" clip-rule="evenodd" d="M8.23611 2.75C5.20622 2.75 2.75 5.20622 2.75 8.23611C2.75 11.266 5.20622 13.7222 8.23611 13.7222C9.71816 13.7222 11.0629 13.1345 12.0502 12.1795C12.0682 12.1553 12.0882 12.1321 12.1101 12.1101C12.1321 12.0882 12.1553 12.0682 12.1795 12.0502C13.1345 11.0629 13.7222 9.71816 13.7222 8.23611C13.7222 5.20622 11.266 2.75 8.23611 2.75ZM13.4208 12.5369C14.3897 11.3702 14.9722 9.87118 14.9722 8.23611C14.9722 4.51586 11.9564 1.5 8.23611 1.5C4.51586 1.5 1.5 4.51586 1.5 8.23611C1.5 11.9564 4.51586 14.9722 8.23611 14.9722C9.87118 14.9722 11.3702 14.3897 12.5369 13.4208L15.4331 16.3169C15.6771 16.561 16.0729 16.561 16.3169 16.3169C16.561 16.0729 16.561 15.6771 16.3169 15.4331L13.4208 12.5369Z" fill="#333333"/>
</svg>
