<svg width="33" height="32" viewBox="0 0 33 32" fill="none" xmlns="http://www.w3.org/2000/svg">
<rect x="1" y="0.5" width="31" height="31" rx="15.5" fill="url(#paint0_linear_1662_7776)"/>
<rect x="1" y="0.5" width="31" height="31" rx="15.5" stroke="url(#paint1_linear_1662_7776)"/>
<path fill-rule="evenodd" clip-rule="evenodd" d="M21.368 8.93198C21.2064 8.52798 20.7479 8.33148 20.3439 8.49309L10.4955 12.4325C10.1875 12.5557 10.0001 12.8514 9.99998 13.164H8.30604C8.04496 13.164 7.83331 13.3756 7.83331 13.6367V15.2913C7.83331 15.5523 8.04637 15.7599 8.30401 15.8022C9.42953 15.987 10.4333 16.8409 10.4333 18.364C10.4333 19.8871 9.42957 20.741 8.30401 20.9257C8.04637 20.968 7.83331 21.1756 7.83331 21.4367V23.0913C7.83331 23.3523 8.04496 23.564 8.30604 23.564H24.6939C24.955 23.564 25.1666 23.3523 25.1666 23.0913V21.4367C25.1666 21.1756 24.9524 20.9682 24.6981 20.9091C23.5717 20.647 22.5666 19.4809 22.5666 18.1473C22.5666 16.8146 23.5704 15.9838 24.6959 15.8019C24.9536 15.7602 25.1666 15.5523 25.1666 15.2913V13.6367C25.1666 13.3756 24.955 13.164 24.6939 13.164H23.0005C23.0005 13.0665 22.9823 12.9674 22.9439 12.8714L21.368 8.93198ZM21.3638 13.164L20.1976 10.2487L12.9095 13.164H21.3638ZM12.1629 16.8674C12.1629 16.4683 12.4865 16.1447 12.8857 16.1447H15.4155C15.8146 16.1447 16.1382 16.4683 16.1382 16.8674C16.1382 17.2666 15.8146 17.5902 15.4155 17.5902H12.8857C12.4865 17.5902 12.1629 17.2666 12.1629 16.8674ZM12.1629 19.1803C12.1629 18.7811 12.4865 18.4575 12.8857 18.4575H18.668C19.0672 18.4575 19.3908 18.7811 19.3908 19.1803C19.3908 19.5795 19.0672 19.9031 18.668 19.9031H12.8857C12.4865 19.9031 12.1629 19.5795 12.1629 19.1803Z" fill="url(#paint2_linear_1662_7776)"/>
<defs>
<linearGradient id="paint0_linear_1662_7776" x1="32.5" y1="32" x2="0.5" y2="0" gradientUnits="userSpaceOnUse">
<stop stop-color="#F3DFB5"/>
<stop offset="1" stop-color="#F1DBB0"/>
</linearGradient>
<linearGradient id="paint1_linear_1662_7776" x1="16.5" y1="0" x2="16.5" y2="32" gradientUnits="userSpaceOnUse">
<stop stop-color="#FFFBEF"/>
<stop offset="1" stop-color="#F9ECC7"/>
</linearGradient>
<linearGradient id="paint2_linear_1662_7776" x1="16.5" y1="8.43652" x2="16.5" y2="23.564" gradientUnits="userSpaceOnUse">
<stop stop-color="#BE903A"/>
<stop offset="1" stop-color="#947130"/>
</linearGradient>
</defs>
</svg>
