<svg width="33" height="32" viewBox="0 0 33 32" fill="none" xmlns="http://www.w3.org/2000/svg">
<rect x="1.25" y="0.5" width="31" height="31" rx="15.5" fill="url(#paint0_linear_1662_7767)"/>
<rect x="1.25" y="0.5" width="31" height="31" rx="15.5" stroke="url(#paint1_linear_1662_7767)"/>
<g clip-path="url(#clip0_1662_7767)">
<path fill-rule="evenodd" clip-rule="evenodd" d="M16.7502 7.66699C15.7519 7.66699 14.9356 8.44623 14.8764 9.42963L9.96691 12.1912C9.75699 12.3093 9.62708 12.5314 9.62708 12.7723V18.2801C8.91944 18.549 8.41669 19.2336 8.41669 20.0355C8.41669 21.0722 9.25713 21.9127 10.2939 21.9127C10.7514 21.9127 11.1708 21.749 11.4965 21.4769L16.4229 24.2481C16.6259 24.3622 16.8737 24.3622 17.0766 24.2481L22.0035 21.4767C22.3293 21.7489 22.7487 21.9127 23.2064 21.9127C24.2432 21.9127 25.0836 21.0722 25.0836 20.0355C25.0836 19.2335 24.5807 18.549 23.8731 18.2801V12.7723C23.8731 12.5314 23.7432 12.3093 23.5333 12.1912L18.6239 9.4297C18.5647 8.44627 17.7485 7.66699 16.7502 7.66699ZM10.9604 13.1622L15.2915 10.7259C15.4984 10.9811 15.7709 11.1809 16.0834 11.2996L16.0836 13.1963L13.9933 14.4157C13.7885 14.5351 13.6626 14.7544 13.6626 14.9915V17.2272L11.4011 18.5195C11.2667 18.4211 11.1187 18.3402 10.9604 18.2801V13.1622ZM17.4169 13.1963L17.4167 11.2996C17.7292 11.1808 18.0017 10.9811 18.2087 10.726L22.5398 13.1622V18.2801C22.3814 18.3402 22.2333 18.4212 22.0988 18.5197L19.838 17.2278V14.9915C19.838 14.7544 19.7121 14.5351 19.5073 14.4157L17.4169 13.1963ZM19.3492 18.4841L21.3711 19.6395C21.3437 19.7672 21.3292 19.8996 21.3292 20.0355C21.3292 20.1303 21.3363 20.2235 21.3498 20.3146L16.7498 22.9021L12.1504 20.315C12.164 20.2238 12.1711 20.1304 12.1711 20.0355C12.1711 19.8995 12.1566 19.7669 12.1291 19.6391L14.1509 18.4838L16.4144 19.8042C16.6219 19.9253 16.8786 19.9253 17.0862 19.8042L19.3492 18.4841Z" fill="url(#paint2_linear_1662_7767)"/>
</g>
<defs>
<linearGradient id="paint0_linear_1662_7767" x1="32.75" y1="32" x2="0.75" y2="0" gradientUnits="userSpaceOnUse">
<stop stop-color="#F3DFB5"/>
<stop offset="1" stop-color="#F1DBB0"/>
</linearGradient>
<linearGradient id="paint1_linear_1662_7767" x1="16.75" y1="0" x2="16.75" y2="32" gradientUnits="userSpaceOnUse">
<stop stop-color="#FFFBEF"/>
<stop offset="1" stop-color="#F9ECC7"/>
</linearGradient>
<linearGradient id="paint2_linear_1662_7767" x1="16.7502" y1="7.66699" x2="16.7502" y2="24.3337" gradientUnits="userSpaceOnUse">
<stop stop-color="#BE903A"/>
<stop offset="1" stop-color="#947130"/>
</linearGradient>
<clipPath id="clip0_1662_7767">
<rect width="24" height="24" fill="white" transform="translate(4.75 4)"/>
</clipPath>
</defs>
</svg>
