<svg width="25" height="25" viewBox="0 0 25 25" fill="none" xmlns="http://www.w3.org/2000/svg">
<path d="M12.5 1.8335C18.3909 1.8335 23.1666 6.60923 23.1666 12.5002C23.1666 18.3911 18.3909 23.1668 12.5 23.1668C6.60905 23.1668 1.83331 18.3911 1.83331 12.5002C1.83331 6.60923 6.60905 1.8335 12.5 1.8335ZM16.229 7.40603L10.804 9.35909C10.4716 9.47879 10.1697 9.67041 9.9199 9.92025C9.67011 10.1701 9.47855 10.472 9.35891 10.8044L7.40585 16.2292C7.33723 16.4197 7.32423 16.6258 7.36837 16.8233C7.41251 17.0209 7.51197 17.2019 7.65513 17.345C7.79828 17.4882 7.97922 17.5876 8.1768 17.6318C8.37438 17.6759 8.58044 17.6629 8.77091 17.5943L14.196 15.6412C14.5284 15.5215 14.8303 15.3299 15.0801 15.0801C15.3299 14.8302 15.5214 14.5283 15.641 14.1959L17.5941 8.7711C17.6627 8.58063 17.6757 8.37456 17.6316 8.17698C17.5874 7.9794 17.488 7.79846 17.3448 7.65531C17.2017 7.51215 17.0207 7.41269 16.8232 7.36855C16.6256 7.32441 16.4195 7.33741 16.229 7.40603ZM12.5 13.8335C12.8536 13.8335 13.1927 13.693 13.4428 13.443C13.6928 13.1929 13.8333 12.8538 13.8333 12.5002C13.8333 12.1465 13.6928 11.8074 13.4428 11.5574C13.1927 11.3073 12.8536 11.1668 12.5 11.1668C12.1464 11.1668 11.8072 11.3073 11.5572 11.5574C11.3071 11.8074 11.1666 12.1465 11.1666 12.5002C11.1666 12.8538 11.3071 13.1929 11.5572 13.443C11.8072 13.693 12.1464 13.8335 12.5 13.8335Z" fill="#999999"/>
</svg>
