<svg width="18" height="18" viewBox="0 0 18 18" fill="none" xmlns="http://www.w3.org/2000/svg">
<path d="M1.0749 13.242V2.35563H9.69419L10.3002 4.86959H16.8994V15.6662H7.9434L7.31491 13.242H1.0749Z" stroke="#333333" stroke-linejoin="round"/>
<path fill-rule="evenodd" clip-rule="evenodd" d="M1.0749 2.35563V13.242H7.31491L7.9434 15.6662H16.8994V4.86959H10.3002L9.69419 2.35563H1.0749ZM4.04966 4.79288C3.77352 4.79288 3.54966 5.01674 3.54966 5.29288C3.54966 5.56902 3.77352 5.79288 4.04966 5.79288H6.93747C7.21361 5.79288 7.43747 5.56902 7.43747 5.29288C7.43747 5.01674 7.21361 4.79288 6.93747 4.79288H4.04966ZM11.6047 10.7356H13.7133C13.9894 10.7356 14.2133 10.5117 14.2133 10.2356C14.2133 9.95943 13.9894 9.73557 13.7133 9.73557H11.3767L11.6047 10.7356ZM11.0413 8.26444H13.7128C13.9889 8.26444 14.2128 8.04058 14.2128 7.76444C14.2128 7.4883 13.9889 7.26444 13.7128 7.26444H10.8133L11.0413 8.26444ZM8.70088 14.7314L8.35059 13.7323H9.72909L8.70088 14.7314ZM3.54966 7.76444C3.54966 7.4883 3.77352 7.26444 4.04966 7.26444H7.35002C7.62616 7.26444 7.85002 7.4883 7.85002 7.76444C7.85002 8.04058 7.62616 8.26444 7.35002 8.26444H4.04966C3.77352 8.26444 3.54966 8.04058 3.54966 7.76444ZM4.04966 9.73557C3.77352 9.73557 3.54966 9.95943 3.54966 10.2356C3.54966 10.5117 3.77352 10.7356 4.04966 10.7356H7.76256C8.0387 10.7356 8.26256 10.5117 8.26256 10.2356C8.26256 9.95943 8.0387 9.73557 7.76256 9.73557H4.04966Z" fill="#333333"/>
</svg>
