<svg width="18" height="18" viewBox="0 0 18 18" fill="none" xmlns="http://www.w3.org/2000/svg">
<path d="M0.992165 8.65225L8.92407 2.13932L17.0078 8.65225" stroke="#333333" stroke-width="1.6" stroke-linecap="round" stroke-linejoin="round"/>
<path d="M8.64207 4.42595L2.1592 9.80436C2.1363 9.82335 2.12305 9.85156 2.12305 9.88132V14.1778C2.12305 14.7301 2.57076 15.1778 3.12305 15.1778H7.15419C7.20941 15.1778 7.25419 15.133 7.25419 15.0778V11.9988C7.25419 11.9436 7.29896 11.8988 7.35419 11.8988H10.7975C10.8528 11.8988 10.8975 11.9436 10.8975 11.9988V15.0778C10.8975 15.133 10.9423 15.1778 10.9975 15.1778H14.8768C15.429 15.1778 15.8768 14.7301 15.8768 14.1778V9.88225C15.8768 9.85196 15.863 9.82331 15.8394 9.80433L9.14818 4.42211C9.00001 4.30293 8.78842 4.30453 8.64207 4.42595Z" fill="#333333"/>
</svg>
