<svg width="18" height="18" viewBox="0 0 18 18" fill="none" xmlns="http://www.w3.org/2000/svg">
<path fill-rule="evenodd" clip-rule="evenodd" d="M1.9 3C1.67909 3 1.5 3.17909 1.5 3.4V14.6C1.5 14.8209 1.67909 15 1.9 15H16.1C16.3209 15 16.5 14.8209 16.5 14.6V3.4C16.5 3.17909 16.3209 3 16.1 3H1.9ZM4.10421 6.01831C4.10421 5.65932 4.39522 5.36831 4.75421 5.36831H13.2458C13.6048 5.36831 13.8958 5.65932 13.8958 6.01831C13.8958 6.37729 13.6048 6.66831 13.2458 6.66831H4.75421C4.39522 6.66831 4.10421 6.37729 4.10421 6.01831ZM4.10421 9C4.10421 8.64101 4.39522 8.35 4.75421 8.35H13.2458C13.6048 8.35 13.8958 8.64101 13.8958 9C13.8958 9.35898 13.6048 9.65 13.2458 9.65H4.75421C4.39522 9.65 4.10421 9.35898 4.10421 9ZM4.75421 11.3317C4.39522 11.3317 4.10421 11.6227 4.10421 11.9817C4.10421 12.3407 4.39522 12.6317 4.75421 12.6317H13.2458C13.6048 12.6317 13.8958 12.3407 13.8958 11.9817C13.8958 11.6227 13.6048 11.3317 13.2458 11.3317H4.75421Z" fill="#333333"/>
</svg>
