<svg width="31" height="30" viewBox="0 0 31 30" fill="none" xmlns="http://www.w3.org/2000/svg">
<g clip-path="url(#clip0_3359_12677)">
<path d="M15.5 30C7.21625 30 0.5 23.2838 0.5 15C0.5 6.71625 7.21625 0 15.5 0C23.7838 0 30.5 6.71625 30.5 15C30.5 23.2838 23.7838 30 15.5 30ZM12.155 20.89C12.3001 21.0351 12.4724 21.1503 12.662 21.2288C12.8516 21.3074 13.0548 21.3478 13.26 21.3478C13.4652 21.3478 13.6684 21.3074 13.858 21.2288C14.0476 21.1503 14.2199 21.0351 14.365 20.89L23.8375 11.4175C23.9826 11.2724 24.0977 11.1001 24.1763 10.9105C24.2548 10.7209 24.2952 10.5177 24.2952 10.3125C24.2952 10.1073 24.2548 9.90407 24.1763 9.71448C24.0977 9.52488 23.9826 9.35261 23.8375 9.2075C23.6924 9.06239 23.5201 8.94728 23.3305 8.86875C23.1409 8.79021 22.9377 8.74979 22.7325 8.74979C22.5273 8.74979 22.3241 8.79021 22.1345 8.86875C21.9449 8.94728 21.7726 9.06239 21.6275 9.2075L13.1925 17.5075L9.4175 13.7325C9.12444 13.4394 8.72696 13.2748 8.3125 13.2748C7.89804 13.2748 7.50056 13.4394 7.2075 13.7325C6.91444 14.0256 6.74979 14.423 6.74979 14.8375C6.74979 15.0427 6.79021 15.2459 6.86875 15.4355C6.94728 15.6251 7.06239 15.7974 7.2075 15.9425L12.155 20.89Z" fill="white"/>
</g>
<defs>
<clipPath id="clip0_3359_12677">
<rect width="30" height="30" fill="white" transform="translate(0.5)"/>
</clipPath>
</defs>
</svg>
