<svg width="15" height="15" viewBox="0 0 15 15" fill="none" xmlns="http://www.w3.org/2000/svg">
<rect x="1.13637" y="1.13672" width="12.7273" height="12.7273" rx="6.36364" fill="url(#paint0_linear_1205_22371)"/>
<path fill-rule="evenodd" clip-rule="evenodd" d="M6.53241 10.8319C6.72785 10.8319 6.89689 10.7421 7.02366 10.5467L10.5734 4.98442C10.6526 4.86821 10.7213 4.72559 10.7213 4.59881C10.7213 4.31885 10.473 4.14453 10.2142 4.14453C10.061 4.14453 9.90781 4.23433 9.7916 4.41393L6.506 9.63814L4.75755 7.44598C4.62021 7.27166 4.47759 7.20827 4.30855 7.20827C4.04972 7.20827 3.83315 7.41428 3.83315 7.69425C3.83315 7.8263 3.88597 7.96893 3.97577 8.07986L6.01474 10.552C6.17849 10.7527 6.33696 10.8319 6.53241 10.8319Z" fill="#333333"/>
<defs>
<linearGradient id="paint0_linear_1205_22371" x1="1.13637" y1="5.49035" x2="14.1288" y2="6.75321" gradientUnits="userSpaceOnUse">
<stop stop-color="#F7D8B9"/>
<stop offset="1" stop-color="#E7AF7D"/>
</linearGradient>
</defs>
</svg>
