<svg width="11" height="11" viewBox="0 0 11 11" fill="none" xmlns="http://www.w3.org/2000/svg">
<path d="M5.5 0.25C2.5975 0.25 0.25 2.5975 0.25 5.5C0.25 8.4025 2.5975 10.75 5.5 10.75C8.4025 10.75 10.75 8.4025 10.75 5.5C10.75 2.5975 8.4025 0.25 5.5 0.25ZM6.25 7.75C6.25 8.1625 5.9125 8.5 5.5 8.5C5.0875 8.5 4.75 8.1625 4.75 7.75V5.5C4.75 5.0875 5.0875 4.75 5.5 4.75C5.9125 4.75 6.25 5.0875 6.25 5.5V7.75ZM5.5 4C5.0875 4 4.75 3.6625 4.75 3.25C4.75 2.8375 5.0875 2.5 5.5 2.5C5.9125 2.5 6.25 2.8375 6.25 3.25C6.25 3.6625 5.9125 4 5.5 4Z" fill="#999999"/>
</svg>
