<svg width="36" height="36" viewBox="0 0 36 36" fill="none" xmlns="http://www.w3.org/2000/svg">
<path d="M12.7419 3.33948C5.73737 3.33948 0 8.11391 0 14.1762C0 17.6756 1.90907 20.5483 5.09764 22.7739L3.82322 26.6078L8.27721 24.3732C9.87147 24.6897 11.1498 25.0135 12.7402 25.0135C13.1399 25.0135 13.5368 24.9938 13.9297 24.9623C13.6812 24.1095 13.5368 23.218 13.5368 22.2926C13.5368 16.729 18.3173 12.2114 24.3701 12.2114C24.7827 12.2114 25.1914 12.2418 25.5973 12.2868C24.4949 7.1537 19.0071 3.33948 12.7419 3.33948ZM8.60269 11.9422C7.64816 11.9422 6.68406 11.3024 6.68406 10.3473C6.68406 9.38829 7.64816 8.75756 8.60269 8.75756C9.55723 8.75756 10.1936 9.38889 10.1936 10.3473C10.193 11.3024 9.55723 11.9422 8.60269 11.9422ZM17.5202 11.9422C16.5651 11.9422 15.6066 11.3024 15.6066 10.3473C15.6066 9.38829 16.5651 8.75756 17.5202 8.75756C18.4798 8.75756 19.1151 9.38889 19.1151 10.3473C19.1151 11.3024 18.4793 11.9422 17.5202 11.9422Z" fill="url(#paint0_linear_2539_14549)"/>
<path d="M36 22.1403C36 17.0494 30.9024 12.8973 25.1774 12.8973C19.1151 12.8973 14.3401 17.0494 14.3401 22.1403C14.3401 27.2424 19.1151 31.3861 25.1774 31.3861C26.4461 31.3861 27.725 31.0668 29 30.7469L32.4955 32.6605L31.537 29.4759C34.0943 27.5584 36 25.0141 36 22.1403ZM21.6633 20.5483C21.0286 20.5483 20.3883 19.9181 20.3883 19.2744C20.3883 18.6386 21.0286 17.9989 21.6633 17.9989C22.6274 17.9989 23.2582 18.6386 23.2582 19.2744C23.2582 19.9181 22.6274 20.5483 21.6633 20.5483ZM28.6723 20.5483C28.0421 20.5483 27.4063 19.9181 27.4063 19.2744C27.4063 18.6386 28.0421 17.9989 28.6723 17.9989C29.6268 17.9989 30.2671 18.6386 30.2671 19.2744C30.2671 19.9181 29.6268 20.5483 28.6723 20.5483Z" fill="url(#paint1_linear_2539_14549)"/>
<defs>
<linearGradient id="paint0_linear_2539_14549" x1="18" y1="3.33948" x2="18" y2="32.6605" gradientUnits="userSpaceOnUse">
<stop stop-color="#56E070"/>
<stop offset="1" stop-color="#4CC568"/>
</linearGradient>
<linearGradient id="paint1_linear_2539_14549" x1="18" y1="3.33948" x2="18" y2="32.6605" gradientUnits="userSpaceOnUse">
<stop stop-color="#56E070"/>
<stop offset="1" stop-color="#4CC568"/>
</linearGradient>
</defs>
</svg>
