<svg width="36" height="36" viewBox="0 0 36 36" fill="none" xmlns="http://www.w3.org/2000/svg">
<path d="M29.8801 1.79999H6.12005C3.73415 1.79999 1.80005 3.73409 1.80005 6.11999V29.88C1.80005 32.2659 3.73415 34.2 6.12005 34.2H29.8801C32.266 34.2 34.2001 32.2659 34.2001 29.88V6.11999C34.2001 3.73409 32.266 1.79999 29.8801 1.79999ZM15.7565 8.11907C21.9786 6.22205 25.1495 12.0209 25.1495 12.0209C24.0036 11.3958 20.5654 10.7013 16.8844 12.6113C13.2034 14.5213 12.4393 18.6888 12.4393 18.6888C10.943 17.0922 10.8751 14.5182 10.8751 14.5182C11.052 9.68723 15.7565 8.11907 15.7565 8.11907ZM13.8343 27.9992C4.82999 26.2541 6.87857 18.3879 9.12983 14.9227C9.12983 14.9227 9.02849 19.7789 13.7079 22.4602C13.7079 22.4602 14.2643 22.7131 14.0874 23.5224L13.9103 24.5594C13.9103 24.5594 13.6763 25.2677 14.1221 25.3434C14.1221 25.3434 14.2645 25.3435 14.5932 25.1158L16.3133 23.9776C16.3133 23.9776 16.6673 23.7247 17.1226 23.8005C17.5778 23.8764 20.4866 24.6353 23.37 22.2325C23.3698 22.2325 22.8388 29.7445 13.8343 27.9992ZM22.864 27.3164C23.4458 27.0383 26.2786 23.6993 24.9378 19.172C23.597 14.6446 19.0446 13.6328 19.0446 13.6328C21.3716 12.6464 24.1033 13.3797 24.1033 13.3797C28.2514 14.5938 28.732 18.5398 28.732 18.5398C29.5413 25.5963 22.864 27.3164 22.864 27.3164Z" fill="#01CC7A"/>
</svg>
