<svg width="21" height="23" viewBox="0 0 21 23" fill="none" xmlns="http://www.w3.org/2000/svg">
<path d="M9.5 1.57735C10.1188 1.22008 10.8812 1.22008 11.5 1.57735L18.5933 5.67265C19.2121 6.02992 19.5933 6.69017 19.5933 7.4047V15.5953C19.5933 16.3098 19.2121 16.9701 18.5933 17.3274L11.5 21.4226C10.8812 21.7799 10.1188 21.7799 9.5 21.4226L2.40673 17.3274C1.78793 16.9701 1.40673 16.3098 1.40673 15.5953V7.4047C1.40673 6.69017 1.78793 6.02992 2.40673 5.67265L9.5 1.57735Z" fill="#333333" stroke="url(#paint0_linear_1302_3453)"/>
<path fill-rule="evenodd" clip-rule="evenodd" d="M10.386 6.81099C10.3505 6.82819 10.3193 6.85322 10.2947 6.88419L8.13614 9.61093C8.10043 9.65604 8.05086 9.68814 7.9951 9.70227C7.93933 9.7164 7.88046 9.71178 7.82758 9.68912L5.72306 8.78728C5.67904 8.76841 5.63069 8.76198 5.58327 8.76867C5.53585 8.77537 5.49117 8.79493 5.45409 8.82525C5.41702 8.85556 5.38896 8.89546 5.37297 8.9406C5.35699 8.98574 5.35368 9.03441 5.36342 9.0813L6.52877 14.6959C6.57773 14.9317 6.70648 15.1435 6.89334 15.2956C7.08019 15.4476 7.31374 15.5307 7.55464 15.5307H13.4456C13.6865 15.5307 13.92 15.4476 14.1069 15.2956C14.2937 15.1435 14.4225 14.9317 14.4714 14.6959L15.6368 9.0813C15.6465 9.03439 15.6432 8.98571 15.6272 8.94055C15.6113 8.89538 15.5832 8.85547 15.5461 8.82516C15.509 8.79484 15.4643 8.77528 15.4168 8.7686C15.3694 8.76192 15.321 8.76838 15.277 8.78728L13.1726 9.68912C13.1197 9.71178 13.0609 9.7164 13.0051 9.70227C12.9493 9.68814 12.8998 9.65604 12.8641 9.61093L10.7055 6.88419C10.6809 6.85322 10.6497 6.82819 10.6142 6.81099C10.5786 6.79379 10.5396 6.78485 10.5001 6.78485C10.4606 6.78485 10.4216 6.79379 10.386 6.81099ZM8.53094 13.4047C8.29112 13.4047 8.09671 13.5991 8.09671 13.8389C8.09671 14.0787 8.29112 14.2731 8.53094 14.2731H12.468C12.7078 14.2731 12.9022 14.0787 12.9022 13.8389C12.9022 13.5991 12.7078 13.4047 12.468 13.4047H8.53094Z" fill="url(#paint1_linear_1302_3453)"/>
<defs>
<linearGradient id="paint0_linear_1302_3453" x1="-4.35902e-08" y1="8.18349" x2="21.4375" y2="10.2672" gradientUnits="userSpaceOnUse">
<stop stop-color="#F7D8B9"/>
<stop offset="1" stop-color="#E7AF7D"/>
</linearGradient>
<linearGradient id="paint1_linear_1302_3453" x1="5.35795" y1="9.77654" x2="15.8191" y2="10.9722" gradientUnits="userSpaceOnUse">
<stop stop-color="#F7D8B9"/>
<stop offset="1" stop-color="#E7AF7D"/>
</linearGradient>
</defs>
</svg>
