<svg width="375" height="375" viewBox="0 0 375 375" fill="none" xmlns="http://www.w3.org/2000/svg">
<rect width="375" height="375" fill="#F2F1F6"/>
<g opacity="0.1">
<path fill-rule="evenodd" clip-rule="evenodd" d="M198.5 188.545C198.499 188.366 198.499 188.184 198.499 188C198.499 187.816 198.499 187.634 198.5 187.455C198.504 183.783 198.508 181.158 196.461 179.097C194.374 176.996 191.665 176.998 187.927 177.001C187.786 177.001 187.644 177.001 187.5 177.001C187.316 177.001 187.134 177.001 186.955 177C183.283 176.996 180.657 176.992 178.596 179.039C176.495 181.126 176.497 183.835 176.5 187.572C176.5 187.714 176.5 187.856 176.5 188C176.5 188.144 176.5 188.287 176.5 188.428C176.497 192.165 176.495 194.874 178.596 196.961C180.657 199.008 183.283 199.004 186.955 199C187.134 198.999 187.316 198.999 187.5 198.999C187.644 198.999 187.786 198.999 187.927 198.999C191.665 199.002 194.374 199.004 196.461 196.903C198.508 194.842 198.504 192.217 198.5 188.545ZM183.125 179.735C183.125 179.523 183.339 179.378 183.536 179.456L192.789 183.119C192.821 183.132 192.851 183.15 192.876 183.172C189.534 182.608 183.237 182.359 184.171 185.986C184.829 188.538 187.434 191.09 191.21 193.08C191.449 193.206 191.722 193.245 191.985 193.199L183.536 196.544C183.339 196.622 183.125 196.477 183.125 196.265V179.735ZM186.472 185.986C186.472 182.549 191.932 183.063 192.884 183.179C192.943 183.234 192.979 183.313 192.979 183.398V192.602C192.979 192.612 192.978 192.622 192.977 192.632C192.969 192.625 192.96 192.62 192.951 192.615C189.005 190.749 186.472 188.286 186.472 185.986Z" fill="#1F1F1F"/>
<g clip-path="url(#clip0_1556_11526)">
<path d="M200.037 188.963L200.037 188.963C198.877 187.803 197.272 187.083 195.5 187.083C193.728 187.083 192.123 187.803 190.963 188.963L190.963 188.963C189.803 190.123 189.083 191.728 189.083 193.5C189.083 195.272 189.803 196.877 190.963 198.037L190.963 198.037C192.123 199.197 193.728 199.917 195.5 199.917C197.272 199.917 198.877 199.197 200.037 198.037C201.197 196.877 201.917 195.272 201.917 193.5C201.917 191.728 201.197 190.123 200.037 188.963Z" fill="black" stroke="#F2F1F6" stroke-width="2" stroke-linejoin="round"/>
<path fill-rule="evenodd" clip-rule="evenodd" d="M195.5 197.021C195.874 197.021 196.177 196.718 196.177 196.344C196.177 195.97 195.874 195.667 195.5 195.667C195.126 195.667 194.823 195.97 194.823 196.344C194.823 196.718 195.126 197.021 195.5 197.021Z" fill="white"/>
<path fill-rule="evenodd" clip-rule="evenodd" d="M195.5 189.844C195.724 189.844 195.906 190.026 195.906 190.25V194.583C195.906 194.808 195.724 194.99 195.5 194.99C195.276 194.99 195.094 194.808 195.094 194.583V190.25C195.094 190.026 195.276 189.844 195.5 189.844Z" fill="white"/>
</g>
</g>
<defs>
<clipPath id="clip0_1556_11526">
<rect x="189" y="187" width="13" height="13" rx="6.5" fill="white"/>
</clipPath>
</defs>
</svg>
